<svg width="50" height="50" viewBox="0 0 50 50" fill="none" xmlns="http://www.w3.org/2000/svg">
<g clip-path="url(#clip0_1_11890)">
<circle cx="25" cy="25" r="25" fill="white"/>
<path d="M35.219 14H15.141C13.9605 14 13 14.9605 13 16.141V30.6523C13 31.8329 13.9605 32.7933 15.141 32.7933H22.3347L21.7072 35.5727H18.6967V37H31.6633V35.5727H28.6528L28.0252 32.7933H35.219C36.3995 32.7933 37.36 31.8329 37.36 30.6523V16.141C37.36 14.9605 36.3995 14 35.219 14ZM15.141 15.4273H35.219C35.6125 15.4273 35.9326 15.7475 35.9326 16.141V27.5597H14.4273V16.141C14.4273 15.7475 14.7475 15.4273 15.141 15.4273ZM26.562 32.7933L27.1895 35.5727H23.1705L23.798 32.7933H26.562ZM35.219 31.366H15.141C14.7475 31.366 14.4273 31.0458 14.4273 30.6523V28.9871H35.9326V30.6523C35.9326 31.0458 35.6125 31.366 35.219 31.366Z" fill="#F53B49"/>
<path d="M19.8945 23.3916L24.6992 18.5869L25.7083 19.5961L20.9037 24.4007L19.8945 23.3916Z" fill="#F53B49"/>
<path d="M24.6523 23.3916L29.457 18.5869L30.4662 19.5961L25.6615 24.4007L24.6523 23.3916Z" fill="#F53B49"/>
</g>
<defs>
<clipPath id="clip0_1_11890">
<rect width="50" height="50" fill="white"/>
</clipPath>
</defs>
</svg>
