<svg width="50" height="50" viewBox="0 0 50 50" fill="none" xmlns="http://www.w3.org/2000/svg">
<g clip-path="url(#clip0_1_11893)">
<circle cx="25" cy="25" r="25" fill="white"/>
<path d="M32.3535 18.8672C31.9338 18.8672 31.5213 18.8989 31.1182 18.9595V15.5371C31.1182 15.2405 30.8777 15 30.5811 15H15.1123C14.8157 15 14.5752 15.2405 14.5752 15.5371V18.8672H13.6621C13.3655 18.8672 13.125 19.1077 13.125 19.4043V23.2715C13.125 23.5681 13.3655 23.8086 13.6621 23.8086H14.5752V26.6016H13.6621C13.3655 26.6016 13.125 26.842 13.125 27.1387V31.0059C13.125 31.3025 13.3655 31.543 13.6621 31.543H14.5752V34.873C14.5752 35.1697 14.8157 35.4102 15.1123 35.4102H32.3535C36.9144 35.4102 40.625 31.6996 40.625 27.1387C40.625 22.5778 36.9144 18.8672 32.3535 18.8672ZM20.3021 30.4688V27.6758H24.0999C24.1636 28.6636 24.4012 29.6047 24.7828 30.4688H20.3021ZM17.4017 30.4688V27.6758H19.2279V30.4688H17.4017ZM17.4017 19.9414H19.2279V22.7344H17.4017V19.9414ZM18.8519 23.8086H20.6781V26.6016H18.8519V23.8086ZM24.0999 26.6016H21.7523V23.8086H24.7828C24.4013 24.6726 24.1636 25.6137 24.0999 26.6016ZM25.3552 22.7344H20.3021V19.9414H28.2811C27.0911 20.6174 26.0845 21.5798 25.3552 22.7344ZM30.0439 18.8672H21.7523V16.0742H30.0439V18.8672ZM20.6781 16.0742V18.8672H18.8519V16.0742H20.6781ZM15.6494 16.0742H17.7777V18.8672H15.6494V16.0742ZM14.1992 19.9414H16.3275V22.7344H14.1992V19.9414ZM15.6494 23.8086H17.7777V26.6016H15.6494V23.8086ZM14.1992 27.6758H16.3275V30.4688H14.1992V27.6758ZM15.6494 31.543H17.7777V34.3359H15.6494V31.543ZM18.8519 34.3359V31.543H20.6781V34.3359H18.8519ZM21.7523 34.3359V31.543H25.3552C26.0845 32.6975 27.0911 33.66 28.2811 34.3359H21.7523ZM32.3535 34.3359C28.3849 34.3359 25.1562 31.1073 25.1562 27.1387C25.1562 23.1701 28.3849 19.9414 32.3535 19.9414C36.3221 19.9414 39.5508 23.1701 39.5508 27.1387C39.5508 31.1073 36.3221 34.3359 32.3535 34.3359Z" fill="#F53B49"/>
<path d="M30.1016 23C29.9554 23 29.8767 23.0832 29.8767 23.2377L29.843 29.2516H29.2248C29.0787 29.2516 29 29.3348 29 29.4893V30.25C29 30.4045 29.0787 30.4877 29.2248 30.4877H29.843L29.8318 31.4623C29.8318 31.6168 29.9105 31.7 30.0566 31.7H31.0345C31.1806 31.7 31.2593 31.6168 31.2593 31.4623L31.2481 30.4877H33.0016C33.1477 30.4877 33.2264 30.4045 33.2264 30.25V29.4893C33.2264 29.3348 33.1477 29.2516 33.0016 29.2516H31.2481L31.2368 28.5742H33.3612C35.0922 28.5742 36.25 27.3262 36.25 25.7098C36.25 24.1053 35.0922 23 33.3612 23H30.1016ZM31.2368 27.3381L31.2143 24.2361H33.2601C34.238 24.2361 34.9236 24.8541 34.9236 25.8525C34.9236 26.7795 34.3504 27.3381 33.2601 27.3381H31.2368Z" fill="#F53B49"/>
</g>
<defs>
<clipPath id="clip0_1_11893">
<rect width="50" height="50" fill="white"/>
</clipPath>
</defs>
</svg>
