<svg width="22" height="20" viewBox="0 0 22 20" fill="none" xmlns="http://www.w3.org/2000/svg">
<g clip-path="url(#clip0_290_62735)">
<path d="M12.4471 17.605C10.5494 17.6046 8.70642 16.9694 7.21158 15.8004L2.51173 20.5L0.999999 18.9883L5.69984 14.2888C4.53023 12.7938 3.89456 10.9505 3.8941 9.05249C3.8941 4.33686 7.73117 0.5 12.4471 0.5C17.1629 0.5 21 4.33686 21 9.05249C21 13.7681 17.1629 17.605 12.4471 17.605ZM12.4471 2.63812C8.90934 2.63812 6.03234 5.51497 6.03234 9.05249C6.03234 12.59 8.90934 15.4669 12.4471 15.4669C15.9848 15.4669 18.8618 12.59 18.8618 9.05249C18.8618 5.51497 15.9848 2.63812 12.4471 2.63812Z" fill="#858FA4" fill-opacity="0.7"/>
</g>
<defs>
<clipPath id="clip0_290_62735">
<rect width="21.4276" height="20" fill="white"/>
</clipPath>
</defs>
</svg>
