<svg width="25" height="21" viewBox="0 0 25 21" fill="none" xmlns="http://www.w3.org/2000/svg">
<g opacity="0.7">
<path d="M22.5718 2.77671C19.9616 0.16723 15.7154 0.16723 13.1059 2.77671L12.4998 3.38246L11.894 2.77671C9.28455 0.166877 5.03796 0.166877 2.42847 2.77671C-0.128032 5.33322 -0.144633 9.38554 2.38997 12.2031C4.7017 14.7719 11.5196 20.3219 11.8089 20.5567C12.0053 20.7164 12.2416 20.7941 12.4765 20.7941C12.4842 20.7941 12.492 20.7941 12.4994 20.7937C12.7424 20.805 12.9872 20.7217 13.1899 20.5567C13.4792 20.3219 20.2979 14.7719 22.6103 12.2027C25.1445 9.38555 25.1279 5.33322 22.5718 2.77671ZM21.035 10.7853C19.2326 12.7876 14.2782 16.9173 12.4994 18.3828C10.7207 16.9177 5.76732 12.7883 3.96527 10.7857C2.19712 8.82042 2.18052 6.02161 3.92677 4.27537C4.81861 3.38387 5.98984 2.93778 7.16107 2.93778C8.3323 2.93778 9.50354 3.38352 10.3954 4.27537L11.7277 5.60766C11.8863 5.76625 12.0862 5.86091 12.296 5.89411C12.6365 5.96722 13.0059 5.87221 13.2708 5.60801L14.6038 4.27537C16.3879 2.49203 19.2898 2.49238 21.0728 4.27537C22.819 6.02161 22.8024 8.82042 21.035 10.7853Z" fill="white"/>
</g>
</svg>
