<svg width="22" height="20" viewBox="0 0 22 20" fill="none" xmlns="http://www.w3.org/2000/svg">
<g clip-path="url(#clip0_401_37268)">
<path d="M12.948 17.605C11.0504 17.6046 9.20739 16.9694 7.71255 15.8004L3.01271 20.5L1.50098 18.9883L6.20082 14.2888C5.03121 12.7938 4.39554 10.9505 4.39508 9.05249C4.39508 4.33686 8.23215 0.5 12.948 0.5C17.6639 0.5 21.501 4.33686 21.501 9.05249C21.501 13.7681 17.6639 17.605 12.948 17.605ZM12.948 2.63812C9.41032 2.63812 6.53332 5.51497 6.53332 9.05249C6.53332 12.59 9.41032 15.4669 12.948 15.4669C16.4857 15.4669 19.3627 12.59 19.3627 9.05249C19.3627 5.51497 16.4857 2.63812 12.948 2.63812Z" fill="#858FA4" fill-opacity="0.7"/>
</g>
<defs>
<clipPath id="clip0_401_37268">
<rect width="21.4276" height="20" fill="white" transform="translate(0.500977)"/>
</clipPath>
</defs>
</svg>
