<svg width="40" height="29" viewBox="0 0 40 29" fill="none" xmlns="http://www.w3.org/2000/svg">
<g opacity="0.7">
<path d="M23.0718 8.96031C20.4616 6.35082 16.2154 6.35082 13.6059 8.96031L12.9998 9.56606L12.394 8.96031C9.78455 6.35047 5.53796 6.35047 2.92847 8.96031C0.371968 11.5168 0.355367 15.5691 2.88997 18.3867C5.2017 20.9555 12.0196 26.5054 12.3089 26.7403C12.5053 26.9 12.7416 26.9777 12.9765 26.9777C12.9842 26.9777 12.992 26.9777 12.9994 26.9773C13.2424 26.9886 13.4872 26.9053 13.6899 26.7403C13.9792 26.5054 20.7979 20.9555 23.1103 18.3863C25.6445 15.5691 25.6279 11.5168 23.0718 8.96031ZM21.535 16.9689C19.7326 18.9712 14.7782 23.1009 12.9994 24.5663C11.2207 23.1013 6.26732 18.9719 4.46527 16.9692C2.69712 15.004 2.68052 12.2052 4.42677 10.459C5.31861 9.56747 6.48984 9.12137 7.66107 9.12137C8.8323 9.12137 10.0035 9.56711 10.8954 10.459L12.2277 11.7913C12.3863 11.9498 12.5862 12.0445 12.796 12.0777C13.1365 12.1508 13.5059 12.0558 13.7708 11.7916L15.1038 10.459C16.8879 8.67562 19.7898 8.67598 21.5728 10.459C23.319 12.2052 23.3024 15.004 21.535 16.9689Z" fill="white"/>
</g>
</svg>
