<svg width="24" height="25" viewBox="0 0 24 25" fill="none" xmlns="http://www.w3.org/2000/svg">
<g id="Vector">
<path id="Vector_2" d="M11.9972 8.68529C9.97738 8.68529 8.32902 10.3337 8.32902 12.3535C8.32902 14.3734 9.97738 16.0217 11.9972 16.0217C14.0171 16.0217 15.6655 14.3734 15.6655 12.3535C15.6655 10.3337 14.0171 8.68529 11.9972 8.68529ZM22.9992 12.3535C22.9992 10.8345 23.0129 9.32922 22.9276 7.81295C22.8423 6.05176 22.4406 4.4887 21.1527 3.20083C19.8621 1.91021 18.3018 1.51119 16.5406 1.42588C15.0215 1.34057 13.5163 1.35433 12 1.35433C10.481 1.35433 8.97571 1.34057 7.45943 1.42588C5.69824 1.51119 4.13519 1.91296 2.84732 3.20083C1.55669 4.49145 1.15767 6.05176 1.07237 7.81295C0.987059 9.33197 1.00082 10.8372 1.00082 12.3535C1.00082 13.8698 0.987059 15.3778 1.07237 16.8941C1.15767 18.6553 1.55945 20.2183 2.84732 21.5062C4.13794 22.7968 5.69824 23.1958 7.45943 23.2811C8.97846 23.3665 10.4837 23.3527 12 23.3527C13.519 23.3527 15.0243 23.3665 16.5406 23.2811C18.3018 23.1958 19.8648 22.7941 21.1527 21.5062C22.4433 20.2156 22.8423 18.6553 22.9276 16.8941C23.0157 15.3778 22.9992 13.8725 22.9992 12.3535ZM11.9972 17.9976C8.87389 17.9976 6.35318 15.4769 6.35318 12.3535C6.35318 9.23015 8.87389 6.70945 11.9972 6.70945C15.1206 6.70945 17.6413 9.23015 17.6413 12.3535C17.6413 15.4769 15.1206 17.9976 11.9972 17.9976ZM17.8725 7.79644C17.1432 7.79644 16.5543 7.20754 16.5543 6.4783C16.5543 5.74905 17.1432 5.16016 17.8725 5.16016C18.6017 5.16016 19.1906 5.74905 19.1906 6.4783C19.1908 6.65146 19.1569 6.82296 19.0907 6.98298C19.0245 7.14301 18.9275 7.2884 18.805 7.41085C18.6826 7.53329 18.5372 7.63038 18.3772 7.69654C18.2171 7.76271 18.0456 7.79665 17.8725 7.79644Z" fill="#909CB5"/>
</g>
</svg>
