<svg width="200" height="20" viewBox="0 0 200 20" fill="none" xmlns="http://www.w3.org/2000/svg">
<path d="M119.509 8.11373H112.47L113.764 5.98095H120.804L119.509 8.11373ZM123.084 3.14547H114.578L108.451 13.2669H106.306L113.727 1.0127H124.366L123.084 3.14547ZM121.334 13.2669H119.189L126.61 1.0127H128.768L121.334 13.2669ZM141.49 3.14547H136.645L130.506 13.2669H128.385L134.513 3.14547H129.631L130.925 1.0127H142.785L141.49 3.14547ZM149.775 12.2067C149.306 12.9957 148.789 13.3902 148.246 13.3902C147.852 13.3902 147.556 13.1436 147.358 12.6505L144.239 4.76046L139.086 13.2669H136.954L143.734 2.07292C143.907 1.77704 144.141 1.53048 144.424 1.3209C144.708 1.11132 144.991 1.0127 145.275 1.0127C145.67 1.0127 145.953 1.22227 146.126 1.64143L149.257 9.51914L154.41 1.0127H156.555L149.775 12.2067ZM165.247 8.11373H158.207L159.502 5.98095H166.541L165.247 8.11373ZM162.695 13.2669H152.043L159.465 1.0127H170.116L168.822 3.14547H160.328L155.483 11.1218H163.989L162.695 13.2669ZM180.558 9.48215C179.856 10.641 178.882 11.5656 177.624 12.2807C176.428 12.934 175.232 13.2669 174.049 13.2669H164.643L165.937 11.1218H175.343C175.923 11.1218 176.515 10.9985 177.106 10.7396C177.809 10.4068 178.315 9.97528 178.647 9.42051C178.98 8.87807 178.98 8.44659 178.66 8.15071C178.389 7.90415 177.957 7.76854 177.378 7.76854H171.559C170.486 7.76854 169.771 7.48499 169.401 6.89324C169.019 6.2645 169.142 5.42618 169.771 4.39062C170.4 3.35505 171.275 2.52906 172.434 1.888C173.519 1.30857 174.591 1.0127 175.652 1.0127H184.947L183.665 3.14547H174.37C173.95 3.14547 173.544 3.25642 173.112 3.49066C172.681 3.71257 172.36 4.02077 172.126 4.40294C171.879 4.79745 171.842 5.10565 172.003 5.31523C172.163 5.53714 172.446 5.63576 172.853 5.63576H178.66C179.856 5.63576 180.645 5.98095 181.027 6.659C181.421 7.37404 181.273 8.31098 180.558 9.48215ZM195.611 9.48215C194.908 10.641 193.934 11.5656 192.677 12.2807C191.481 12.934 190.285 13.2669 189.102 13.2669H179.695L180.99 11.1218H190.396C190.976 11.1218 191.567 10.9985 192.159 10.7396C192.862 10.4068 193.367 9.97528 193.7 9.42051C194.033 8.87807 194.033 8.44659 193.712 8.15071C193.441 7.90415 193.01 7.76854 192.43 7.76854H186.611C185.539 7.76854 184.824 7.48499 184.454 6.89324C184.072 6.2645 184.195 5.42618 184.824 4.39062C185.453 3.35505 186.328 2.52906 187.487 1.888C188.572 1.30857 189.644 1.0127 190.704 1.0127H200L198.718 3.14547H189.422C189.003 3.14547 188.596 3.25642 188.165 3.49066C187.733 3.71257 187.413 4.02077 187.179 4.40294C186.932 4.79745 186.895 5.10565 187.055 5.31523C187.215 5.53714 187.499 5.63576 187.906 5.63576H193.712C194.908 5.63576 195.697 5.98095 196.079 6.659C196.474 7.37404 196.326 8.31098 195.611 9.48215Z" fill="#AF4642"/>
<path d="M48.6841 17.5819C48.6841 18.0504 48.5238 18.4449 48.2279 18.7531C47.9197 19.0736 47.5252 19.2216 47.0568 19.2216H45.2568V16.0039H47.0568C47.5376 16.0039 47.9197 16.1518 48.2279 16.4477C48.5361 16.7313 48.6841 17.1134 48.6841 17.5819ZM48.117 17.6312C48.117 17.323 48.0184 17.0641 47.8211 16.8669C47.6238 16.6696 47.365 16.571 47.0568 16.571H45.8116V18.6668H47.0568C47.365 18.6668 47.6238 18.5682 47.8211 18.3709C48.0184 18.186 48.117 17.9394 48.117 17.6312Z" fill="white"/>
<path d="M52.8015 19.2216H52.2344V16.0039H52.8015V19.2216ZM60.0135 18.2353C60.0135 18.5312 59.9025 18.7777 59.6806 18.9627C59.4833 19.1353 59.2245 19.2216 58.9039 19.2216H56.4506V18.6668H58.9039C59.0642 18.6668 59.1998 18.6298 59.3107 18.5558C59.434 18.4695 59.4957 18.3586 59.4957 18.2106C59.4957 18.075 59.434 17.9641 59.2984 17.8778C59.1875 17.8161 59.0642 17.7792 58.9039 17.7792H57.3876C57.1163 17.7792 56.8821 17.7052 56.6972 17.5573C56.4876 17.3847 56.389 17.1628 56.389 16.8915C56.389 16.6203 56.4876 16.4107 56.6972 16.2381C56.8821 16.0902 57.1163 16.0039 57.3876 16.0039H59.8162V16.571H57.3876C57.2889 16.571 57.1903 16.5957 57.1163 16.6573C57.0424 16.7189 57.0054 16.7929 57.0054 16.9039C57.0054 17.0025 57.0424 17.0765 57.1163 17.1381C57.1903 17.1997 57.2889 17.2244 57.3876 17.2244H58.9039C59.2245 17.2244 59.4833 17.3107 59.6806 17.4956C59.9025 17.6805 60.0135 17.9271 60.0135 18.2353ZM66.3995 16.571H65.142V19.2216H64.5872V16.571H63.3174V16.0039H66.3995V16.571ZM73.5745 19.2216H72.7361L71.8362 18.3216H70.628V17.7668H72.1321C72.3416 17.7668 72.5142 17.7175 72.6622 17.6312C72.8224 17.5203 72.8964 17.3723 72.8964 17.1751C72.8964 16.7683 72.6498 16.571 72.1321 16.571H70.2952V19.2216H69.7404V16.0039H72.0458C72.4649 16.0039 72.7978 16.1025 73.0443 16.2751C73.3402 16.4847 73.4882 16.7806 73.4882 17.1751C73.4882 17.4463 73.4019 17.6805 73.2293 17.8778C73.0813 18.0504 72.8594 18.186 72.5882 18.2476L73.5745 19.2216ZM77.7537 19.2216H77.1866V16.0039H77.7537V19.2216ZM85.126 18.2846C85.126 18.4202 85.089 18.5558 85.0273 18.6791C84.8177 19.0366 84.4232 19.2216 83.8438 19.2216H81.5385V16.0039H83.8438C84.3986 16.0039 84.7808 16.1765 85.0027 16.5217C85.089 16.6573 85.126 16.8052 85.126 16.9655C85.126 17.2244 85.015 17.4463 84.7931 17.6312C85.015 17.8038 85.126 18.0257 85.126 18.2846ZM84.5835 16.9532C84.5835 16.8176 84.5095 16.7189 84.3493 16.645C84.226 16.5957 84.0904 16.5587 83.9301 16.5587H82.1055V18.6545H83.9301C84.0904 18.6545 84.226 18.6298 84.3369 18.5928C84.5095 18.5189 84.5835 18.4202 84.5835 18.2969C84.5835 18.1613 84.5095 18.0627 84.3369 17.9887C84.2137 17.9394 84.0781 17.9148 83.9301 17.9148H82.4261V17.36H83.9301C84.0904 17.36 84.226 17.323 84.3493 17.2737C84.5095 17.1997 84.5835 17.0888 84.5835 16.9532ZM92.3379 17.7792C92.3379 18.2969 92.1777 18.6791 91.8695 18.9134C91.5859 19.1229 91.1914 19.2216 90.649 19.2216H90.4641C89.9216 19.2216 89.5148 19.1229 89.2436 18.9134C88.9354 18.6791 88.7751 18.2969 88.7751 17.7792V16.0039H89.3422V17.7792C89.3422 18.1613 89.4778 18.4202 89.7367 18.5435C89.9093 18.6298 90.2175 18.6668 90.649 18.6668C91.0188 18.6668 91.2777 18.6052 91.4503 18.4942C91.6599 18.3586 91.7708 18.1244 91.7708 17.7792V16.0039H92.3379V17.7792ZM98.9212 16.571H97.6514V19.2216H97.0966V16.571H95.8268V16.0039H98.9212V16.571ZM102.965 19.2216H102.398V16.0039H102.965V19.2216ZM110.793 17.5819C110.793 18.0504 110.645 18.4449 110.337 18.7531C110.029 19.0736 109.647 19.2216 109.178 19.2216H108.278C107.81 19.2216 107.428 19.0736 107.119 18.7531C106.811 18.4449 106.663 18.0504 106.663 17.5819C106.663 17.1134 106.811 16.7313 107.107 16.4477C107.415 16.1518 107.81 16.0039 108.278 16.0039H109.178C109.647 16.0039 110.041 16.1518 110.349 16.4477C110.645 16.7313 110.793 17.1134 110.793 17.5819ZM110.238 17.6312C110.238 17.323 110.14 17.0641 109.943 16.8669C109.745 16.6696 109.486 16.571 109.178 16.571H108.278C107.97 16.571 107.711 16.6696 107.514 16.8669C107.317 17.0641 107.218 17.323 107.218 17.6312C107.218 17.9394 107.317 18.186 107.514 18.3709C107.711 18.5682 107.97 18.6668 108.278 18.6668H109.178C109.486 18.6668 109.745 18.5682 109.943 18.3709C110.14 18.186 110.238 17.9394 110.238 17.6312ZM117.475 18.9503C117.475 19.1476 117.413 19.2585 117.266 19.2585C117.167 19.2585 117.044 19.1969 116.92 19.0613L114.862 16.9902V19.2216H114.294V16.2875C114.294 16.2135 114.319 16.1518 114.356 16.0902C114.405 16.0409 114.455 16.0039 114.541 16.0039C114.64 16.0039 114.751 16.0655 114.862 16.1765L116.92 18.2353V16.0039H117.475V18.9503ZM121.802 18.9503C121.802 19.0366 121.778 19.1106 121.728 19.1599C121.667 19.2092 121.605 19.2339 121.519 19.2339C121.432 19.2339 121.371 19.2092 121.309 19.1599C121.26 19.1106 121.235 19.0366 121.235 18.9503C121.235 18.864 121.26 18.8024 121.309 18.7531C121.371 18.6914 121.432 18.6668 121.519 18.6668C121.605 18.6668 121.667 18.6914 121.728 18.7531C121.778 18.8024 121.802 18.864 121.802 18.9503ZM129.347 19.2216H128.509L127.609 18.3216H126.401V17.7668H127.917C128.114 17.7668 128.287 17.7175 128.435 17.6312C128.595 17.5203 128.669 17.3723 128.669 17.1751C128.669 16.7683 128.423 16.571 127.917 16.571H126.08V19.2216H125.513V16.0039H127.818C128.238 16.0039 128.57 16.1025 128.829 16.2751C129.113 16.4847 129.261 16.7806 129.261 17.1751C129.261 17.4463 129.175 17.6805 129.002 17.8778C128.854 18.0504 128.632 18.186 128.373 18.2476L129.347 19.2216ZM135.499 17.8778H133.662V17.3107H135.499V17.8778ZM135.647 19.2216H132.873V16.0039H135.647V16.571H133.428V18.6668H135.647V19.2216ZM142.181 16.571H140.911V19.2216H140.356V16.571H139.086V16.0039H142.181V16.571ZM149.701 19.2216H148.986L148.443 18.3216H146.915L147.26 17.7668H148.111L147.556 16.8422L146.101 19.2216H145.386L147.124 16.3121C147.174 16.2381 147.235 16.1765 147.309 16.1025C147.408 16.0409 147.494 16.0039 147.568 16.0039C147.642 16.0039 147.728 16.0286 147.815 16.1025C147.889 16.1642 147.95 16.2381 148 16.3121L149.701 19.2216ZM153.634 19.2216H153.079V16.0039H153.634V19.2216ZM160.032 19.2216H157.258V16.0039H157.825V18.6668H160.032V19.2216ZM164.026 18.9503C164.026 19.0366 164.002 19.1106 163.94 19.1599C163.891 19.2092 163.817 19.2339 163.73 19.2339C163.656 19.2339 163.582 19.2092 163.533 19.1599C163.472 19.1106 163.447 19.0366 163.447 18.9503C163.447 18.864 163.472 18.8024 163.533 18.7531C163.582 18.6914 163.656 18.6668 163.73 18.6668C163.817 18.6668 163.891 18.6914 163.94 18.7531C164.002 18.8024 164.026 18.864 164.026 18.9503ZM171.152 19.2216H169.34C168.871 19.2216 168.477 19.0736 168.181 18.7531C167.873 18.4449 167.712 18.0504 167.712 17.5819C167.712 17.1134 167.873 16.7313 168.169 16.4477C168.477 16.1518 168.859 16.0039 169.34 16.0039H171.152V16.571H169.34C169.032 16.571 168.773 16.6696 168.575 16.8669C168.378 17.0641 168.28 17.323 168.28 17.6312C168.28 17.9394 168.378 18.186 168.575 18.3709C168.773 18.5682 169.032 18.6668 169.34 18.6668H171.152V19.2216ZM177.328 19.2216H174.555V16.0039H175.109V18.6668H177.328V19.2216ZM184.368 17.7792C184.368 18.2969 184.208 18.6791 183.899 18.9134C183.628 19.1229 183.221 19.2216 182.691 19.2216H182.494C181.951 19.2216 181.557 19.1229 181.273 18.9134C180.965 18.6791 180.817 18.2969 180.817 17.7792V16.0039H181.372V17.7792C181.372 18.1613 181.508 18.4202 181.779 18.5435C181.951 18.6298 182.247 18.6668 182.691 18.6668C183.049 18.6668 183.32 18.6052 183.492 18.4942C183.702 18.3586 183.801 18.1244 183.801 17.7792V16.0039H184.368V17.7792ZM191.666 18.2846C191.666 18.4202 191.629 18.5558 191.567 18.6791C191.358 19.0366 190.963 19.2216 190.384 19.2216H188.079V16.0039H190.384C190.939 16.0039 191.321 16.1765 191.543 16.5217C191.629 16.6573 191.666 16.8052 191.666 16.9655C191.666 17.2244 191.555 17.4463 191.333 17.6312C191.555 17.8038 191.666 18.0257 191.666 18.2846ZM191.124 16.9532C191.124 16.8176 191.05 16.7189 190.889 16.645C190.766 16.5957 190.63 16.5587 190.47 16.5587H188.646V18.6545H190.47C190.63 18.6545 190.766 18.6298 190.877 18.5928C191.05 18.5189 191.124 18.4202 191.124 18.2969C191.124 18.1613 191.05 18.0627 190.877 17.9887C190.754 17.9394 190.618 17.9148 190.47 17.9148H188.966V17.36H190.47C190.63 17.36 190.766 17.323 190.889 17.2737C191.05 17.1997 191.124 17.0888 191.124 16.9532ZM198.705 18.2353C198.705 18.5312 198.594 18.7777 198.373 18.9627C198.175 19.1353 197.916 19.2216 197.596 19.2216H195.143V18.6668H197.596C197.756 18.6668 197.892 18.6298 198.003 18.5558C198.126 18.4695 198.2 18.3586 198.2 18.2106C198.2 18.075 198.126 17.9641 197.99 17.8778C197.892 17.8161 197.756 17.7792 197.596 17.7792H196.08C195.808 17.7792 195.574 17.7052 195.389 17.5573C195.18 17.3847 195.081 17.1628 195.081 16.8915C195.081 16.6203 195.18 16.4107 195.389 16.2381C195.574 16.0902 195.808 16.0039 196.08 16.0039H198.508V16.571H196.08C195.981 16.571 195.882 16.5957 195.808 16.6573C195.734 16.7189 195.697 16.7929 195.697 16.9039C195.697 17.0025 195.734 17.0765 195.808 17.1381C195.882 17.1997 195.981 17.2244 196.08 17.2244H197.596C197.916 17.2244 198.175 17.3107 198.373 17.4956C198.594 17.6805 198.705 17.9271 198.705 18.2353Z" fill="white"/>
<path d="M0 0.852539H9.30777L20.6127 19.2832H11.2926L0 0.852539Z" fill="white"/>
<path d="M10.9487 0.852539H20.2688L31.5738 19.2832H22.2537L10.9487 0.852539Z" fill="white"/>
<path d="M21.8696 0.852539H42.6673L39.0798 6.47419H25.3092L21.8696 0.852539Z" fill="#B44843"/>
<path d="M34.4571 13.7234H29.6738L26.0986 7.87988H38.1802L34.4571 13.7234Z" fill="#B44843"/>
<path d="M51.9633 12.934L44.5171 0.729125L47.069 0.741453L52.6537 9.77801L54.1207 7.44798L50.0278 0.729125L52.5674 0.741453L58.0658 9.6424L63.5271 0.716797L66.1161 0.729125C63.5888 4.83441 61.0985 8.87805 58.6205 12.934H57.511L55.3905 9.51912C54.6509 10.715 53.9605 11.8245 53.2701 12.934H51.9633Z" fill="#FEFEFE"/>
<path d="M60.6299 12.9334L68.1377 0.740844L80.6632 0.728516L79.3687 2.75034L78.9372 2.73801H69.4569L64.3776 10.9979H74.2402L73.0444 12.9334H60.6299Z" fill="#FEFEFE"/>
<path d="M89.6875 12.934L97.1461 0.716797L99.7226 0.729125L93.386 11.0108H103.002L101.695 12.934H89.6875Z" fill="#FEFEFE"/>
<path d="M75.4609 12.934L78.8635 7.34936L82.6606 1.17294L82.9441 0.716797L85.4961 0.729125L79.184 10.9985H88.7014L87.4686 12.934H75.4609Z" fill="#FEFEFE"/>
<path d="M67.916 7.81785L69.0625 5.83301L77.2854 5.85766L76.0403 7.83017L67.916 7.81785Z" fill="#FEFEFE"/>
</svg>
