<svg width="280" height="29" viewBox="0 0 280 29" fill="none" xmlns="http://www.w3.org/2000/svg">
<path d="M167.313 11.5125H157.458L159.27 8.1929H169.125L167.313 11.5125ZM172.318 3.77956H160.409L151.831 19.5333H148.828L159.218 0.459961H174.113L172.318 3.77956ZM169.867 19.5333H166.864L177.254 0.459961H180.275L169.867 19.5333ZM198.087 3.77956H191.304L182.708 19.5333H179.74L188.318 3.77956H181.483L183.295 0.459961H199.899L198.087 3.77956ZM209.685 17.8831C209.029 19.1111 208.304 19.7252 207.545 19.7252C206.992 19.7252 206.578 19.3414 206.302 18.5739L201.935 6.29325L194.721 19.5333H191.735L201.228 2.11017C201.469 1.64964 201.797 1.26588 202.194 0.939672C202.591 0.613468 202.988 0.459961 203.385 0.459961C203.938 0.459961 204.335 0.786164 204.576 1.43857L208.96 13.7L216.174 0.459961H219.178L209.685 17.8831ZM231.346 11.5125H221.49L223.303 8.1929H233.158L231.346 11.5125ZM227.773 19.5333H212.861L223.251 0.459961H238.163L236.351 3.77956H224.459L217.676 16.1945H229.585L227.773 19.5333ZM252.782 13.6424C251.798 15.4461 250.435 16.8853 248.674 17.9982C247 19.0152 245.326 19.5333 243.669 19.5333H230.5L232.312 16.1945H245.481C246.292 16.1945 247.121 16.0026 247.949 15.5996C248.933 15.0816 249.641 14.41 250.107 13.5465C250.573 12.7022 250.573 12.0306 250.124 11.5701C249.744 11.1863 249.14 10.9752 248.329 10.9752H240.182C238.681 10.9752 237.68 10.5339 237.162 9.61285C236.627 8.63424 236.8 7.32942 237.68 5.7176C238.56 4.10577 239.785 2.82014 241.408 1.82234C242.927 0.920484 244.428 0.459961 245.913 0.459961H258.926L257.131 3.77956H244.118C243.531 3.77956 242.961 3.95226 242.357 4.31684C241.753 4.66223 241.304 5.14194 240.976 5.73678C240.631 6.35081 240.579 6.83052 240.804 7.15673C241.028 7.50212 241.425 7.65563 241.995 7.65563H250.124C251.798 7.65563 252.903 8.1929 253.438 9.24827C253.99 10.3612 253.783 11.8195 252.782 13.6424ZM273.856 13.6424C272.872 15.4461 271.508 16.8853 269.748 17.9982C268.074 19.0152 266.399 19.5333 264.743 19.5333H251.574L253.386 16.1945H266.555C267.366 16.1945 268.194 16.0026 269.023 15.5996C270.007 15.0816 270.714 14.41 271.18 13.5465C271.646 12.7022 271.646 12.0306 271.198 11.5701C270.818 11.1863 270.214 10.9752 269.403 10.9752H261.256C259.755 10.9752 258.754 10.5339 258.236 9.61285C257.701 8.63424 257.873 7.32942 258.754 5.7176C259.634 4.10577 260.859 2.82014 262.482 1.82234C264 0.920484 265.502 0.459961 266.986 0.459961H280L278.205 3.77956H265.191C264.605 3.77956 264.035 3.95226 263.431 4.31684C262.827 4.66223 262.378 5.14194 262.05 5.73678C261.705 6.35081 261.653 6.83052 261.878 7.15673C262.102 7.50212 262.499 7.65563 263.068 7.65563H271.198C272.872 7.65563 273.976 8.1929 274.511 9.24827C275.064 10.3612 274.857 11.8195 273.856 13.6424Z" fill="#AF4642"/>
<path d="M68.1575 26.2501C68.1575 26.9792 67.9331 27.5933 67.5189 28.073C67.0874 28.5719 66.5351 28.8021 65.8793 28.8021H63.3594V23.7939H65.8793C66.5524 23.7939 67.0874 24.0242 67.5189 24.4847C67.9504 24.9261 68.1575 25.5209 68.1575 26.2501ZM67.3636 26.3268C67.3636 25.8471 67.2255 25.4442 66.9493 25.1371C66.6732 24.8301 66.3107 24.6766 65.8793 24.6766H64.1361V27.9387H65.8793C66.3107 27.9387 66.6732 27.7851 66.9493 27.4781C67.2255 27.1903 67.3636 26.8065 67.3636 26.3268Z" fill="white"/>
<path d="M73.9228 28.8021H73.1289V23.7939H73.9228V28.8021ZM84.0196 27.2671C84.0196 27.7276 83.8643 28.1113 83.5536 28.3992C83.2775 28.6678 82.915 28.8021 82.4663 28.8021H79.0316V27.9386H82.4663C82.6906 27.9386 82.8805 27.8811 83.0358 27.766C83.2084 27.6316 83.2947 27.4589 83.2947 27.2287C83.2947 27.0176 83.2084 26.8449 83.0186 26.7106C82.8632 26.6146 82.6906 26.5571 82.4663 26.5571H80.3434C79.9636 26.5571 79.6357 26.4419 79.3768 26.2117C79.0834 25.9431 78.9453 25.5977 78.9453 25.1755C78.9453 24.7534 79.0834 24.4272 79.3768 24.1585C79.6357 23.9283 79.9636 23.7939 80.3434 23.7939H83.7435V24.6766H80.3434C80.2053 24.6766 80.0672 24.715 79.9636 24.8109C79.8601 24.9069 79.8083 25.022 79.8083 25.1947C79.8083 25.3482 79.8601 25.4633 79.9636 25.5593C80.0672 25.6552 80.2053 25.6936 80.3434 25.6936H82.4663C82.915 25.6936 83.2775 25.8279 83.5536 26.1157C83.8643 26.4036 84.0196 26.7873 84.0196 27.2671ZM92.96 24.6766H91.1995V28.8021H90.4229V24.6766H88.6452V23.7939H92.96V24.6766ZM103.005 28.8021H101.831L100.571 27.4014H98.88V26.5379H100.986C101.279 26.5379 101.521 26.4611 101.728 26.3268C101.952 26.1541 102.056 25.9239 102.056 25.6168C102.056 24.9836 101.711 24.6766 100.986 24.6766H98.414V28.8021H97.6373V23.7939H100.865C101.452 23.7939 101.918 23.9475 102.263 24.2161C102.677 24.5423 102.884 25.0028 102.884 25.6168C102.884 26.039 102.763 26.4036 102.522 26.7106C102.315 26.9792 102.004 27.1903 101.624 27.2862L103.005 28.8021ZM108.856 28.8021H108.062V23.7939H108.856V28.8021ZM119.177 27.3438C119.177 27.5549 119.125 27.766 119.039 27.9578C118.746 28.5143 118.193 28.8021 117.382 28.8021H114.155V23.7939H117.382C118.159 23.7939 118.694 24.0626 119.005 24.5999C119.125 24.8109 119.177 25.0412 119.177 25.2906C119.177 25.6936 119.022 26.039 118.711 26.3268C119.022 26.5955 119.177 26.9408 119.177 27.3438ZM118.418 25.2715C118.418 25.0604 118.314 24.9069 118.09 24.7917C117.917 24.715 117.727 24.6574 117.503 24.6574H114.949V27.9195H117.503C117.727 27.9195 117.917 27.8811 118.073 27.8235C118.314 27.7084 118.418 27.5549 118.418 27.363C118.418 27.1519 118.314 26.9984 118.073 26.8833C117.9 26.8065 117.71 26.7682 117.503 26.7682H115.397V25.9047H117.503C117.727 25.9047 117.917 25.8471 118.09 25.7704C118.314 25.6552 118.418 25.4825 118.418 25.2715ZM129.274 26.5571C129.274 27.363 129.05 27.9578 128.618 28.3224C128.221 28.6486 127.669 28.8021 126.909 28.8021H126.65C125.891 28.8021 125.321 28.6486 124.942 28.3224C124.51 27.9578 124.286 27.363 124.286 26.5571V23.7939H125.08V26.5571C125.08 27.1519 125.27 27.5549 125.632 27.7468C125.874 27.8811 126.305 27.9386 126.909 27.9386C127.427 27.9386 127.79 27.8427 128.031 27.67C128.325 27.4589 128.48 27.0944 128.48 26.5571V23.7939H129.274V26.5571ZM138.49 24.6766H136.713V28.8021H135.936V24.6766H134.158V23.7939H138.49V24.6766ZM144.152 28.8021H143.358V23.7939H144.152V28.8021ZM155.111 26.2501C155.111 26.9792 154.904 27.5933 154.473 28.073C154.041 28.5719 153.506 28.8021 152.85 28.8021H151.59C150.935 28.8021 150.399 28.5719 149.968 28.073C149.536 27.5933 149.329 26.9792 149.329 26.2501C149.329 25.5209 149.536 24.9261 149.951 24.4847C150.382 24.0242 150.935 23.7939 151.59 23.7939H152.85C153.506 23.7939 154.058 24.0242 154.49 24.4847C154.904 24.9261 155.111 25.5209 155.111 26.2501ZM154.335 26.3268C154.335 25.8471 154.197 25.4442 153.92 25.1371C153.644 24.8301 153.282 24.6766 152.85 24.6766H151.59C151.159 24.6766 150.796 24.8301 150.52 25.1371C150.244 25.4442 150.106 25.8471 150.106 26.3268C150.106 26.8065 150.244 27.1903 150.52 27.4781C150.796 27.7851 151.159 27.9386 151.59 27.9386H152.85C153.282 27.9386 153.644 27.7851 153.92 27.4781C154.197 27.1903 154.335 26.8065 154.335 26.3268ZM164.466 28.38C164.466 28.687 164.38 28.8597 164.173 28.8597C164.034 28.8597 163.862 28.7638 163.689 28.5527L160.807 25.329V28.8021H160.013V24.2353C160.013 24.1201 160.047 24.0242 160.099 23.9283C160.168 23.8515 160.237 23.7939 160.358 23.7939C160.496 23.7939 160.652 23.8899 160.807 24.0626L163.689 27.2671V23.7939H164.466V28.38ZM170.524 28.38C170.524 28.5143 170.489 28.6294 170.42 28.7062C170.334 28.7829 170.248 28.8213 170.127 28.8213C170.006 28.8213 169.92 28.7829 169.834 28.7062C169.765 28.6294 169.73 28.5143 169.73 28.38C169.73 28.2457 169.765 28.1497 169.834 28.073C169.92 27.977 170.006 27.9386 170.127 27.9386C170.248 27.9386 170.334 27.977 170.42 28.073C170.489 28.1497 170.524 28.2457 170.524 28.38ZM181.087 28.8021H179.913L178.653 27.4014H176.962V26.5379H179.085C179.361 26.5379 179.602 26.4611 179.81 26.3268C180.034 26.1541 180.137 25.9239 180.137 25.6168C180.137 24.9836 179.792 24.6766 179.085 24.6766H176.513V28.8021H175.719V23.7939H178.947C179.533 23.7939 179.999 23.9475 180.362 24.2161C180.759 24.5423 180.966 25.0028 180.966 25.6168C180.966 26.039 180.845 26.4036 180.603 26.7106C180.396 26.9792 180.086 27.1903 179.723 27.2862L181.087 28.8021ZM189.699 26.7106H187.128V25.8279H189.699V26.7106ZM189.906 28.8021H186.023V23.7939H189.906V24.6766H186.8V27.9386H189.906V28.8021ZM199.054 24.6766H197.276V28.8021H196.499V24.6766H194.722V23.7939H199.054V24.6766ZM209.582 28.8021H208.581L207.822 27.4014H205.681L206.165 26.5379H207.356L206.579 25.0988L204.542 28.8021H203.541L205.975 24.2737C206.044 24.1585 206.13 24.0626 206.234 23.9475C206.372 23.8515 206.493 23.7939 206.596 23.7939C206.7 23.7939 206.821 23.8323 206.941 23.9475C207.045 24.0434 207.131 24.1585 207.2 24.2737L209.582 28.8021ZM215.088 28.8021H214.311V23.7939H215.088V28.8021ZM224.046 28.8021H220.162V23.7939H220.956V27.9386H224.046V28.8021ZM229.638 28.38C229.638 28.5143 229.603 28.6294 229.517 28.7062C229.448 28.7829 229.344 28.8213 229.223 28.8213C229.12 28.8213 229.016 28.7829 228.947 28.7062C228.861 28.6294 228.826 28.5143 228.826 28.38C228.826 28.2457 228.861 28.1497 228.947 28.073C229.016 27.977 229.12 27.9386 229.223 27.9386C229.344 27.9386 229.448 27.977 229.517 28.073C229.603 28.1497 229.638 28.2457 229.638 28.38ZM239.614 28.8021H237.076C236.421 28.8021 235.868 28.5719 235.454 28.073C235.023 27.5933 234.798 26.9792 234.798 26.2501C234.798 25.5209 235.023 24.9261 235.437 24.4847C235.868 24.0242 236.403 23.7939 237.076 23.7939H239.614V24.6766H237.076C236.645 24.6766 236.282 24.8301 236.006 25.1371C235.73 25.4442 235.592 25.8471 235.592 26.3268C235.592 26.8065 235.73 27.1903 236.006 27.4781C236.282 27.7851 236.645 27.9386 237.076 27.9386H239.614V28.8021ZM248.261 28.8021H244.377V23.7939H245.154V27.9386H248.261V28.8021ZM258.116 26.5571C258.116 27.363 257.891 27.9578 257.46 28.3224C257.08 28.6486 256.511 28.8021 255.768 28.8021H255.492C254.733 28.8021 254.181 28.6486 253.784 28.3224C253.352 27.9578 253.145 27.363 253.145 26.5571V23.7939H253.922V26.5571C253.922 27.1519 254.111 27.5549 254.491 27.7468C254.733 27.8811 255.147 27.9386 255.768 27.9386C256.269 27.9386 256.649 27.8427 256.89 27.67C257.184 27.4589 257.322 27.0944 257.322 26.5571V23.7939H258.116V26.5571ZM268.333 27.3438C268.333 27.5549 268.281 27.766 268.195 27.9578C267.902 28.5143 267.349 28.8021 266.538 28.8021H263.311V23.7939H266.538C267.315 23.7939 267.85 24.0626 268.161 24.5999C268.281 24.8109 268.333 25.0412 268.333 25.2906C268.333 25.6936 268.178 26.039 267.867 26.3268C268.178 26.5955 268.333 26.9408 268.333 27.3438ZM267.574 25.2715C267.574 25.0604 267.47 24.9069 267.246 24.7917C267.073 24.715 266.883 24.6574 266.659 24.6574H264.105V27.9195H266.659C266.883 27.9195 267.073 27.8811 267.229 27.8235C267.47 27.7084 267.574 27.5549 267.574 27.363C267.574 27.1519 267.47 26.9984 267.229 26.8833C267.056 26.8065 266.866 26.7682 266.659 26.7682H264.553V25.9047H266.659C266.883 25.9047 267.073 25.8471 267.246 25.7704C267.47 25.6552 267.574 25.4825 267.574 25.2715ZM278.188 27.2671C278.188 27.7276 278.033 28.1113 277.722 28.3992C277.446 28.6678 277.084 28.8021 276.635 28.8021H273.2V27.9386H276.635C276.859 27.9386 277.049 27.8811 277.205 27.766C277.377 27.6316 277.481 27.4589 277.481 27.2287C277.481 27.0176 277.377 26.8449 277.187 26.7106C277.049 26.6146 276.859 26.5571 276.635 26.5571H274.512C274.132 26.5571 273.805 26.4419 273.546 26.2117C273.252 25.9431 273.114 25.5977 273.114 25.1755C273.114 24.7534 273.252 24.4272 273.546 24.1585C273.805 23.9283 274.132 23.7939 274.512 23.7939H277.912V24.6766H274.512C274.374 24.6766 274.236 24.715 274.132 24.8109C274.029 24.9069 273.977 25.022 273.977 25.1947C273.977 25.3482 274.029 25.4633 274.132 25.5593C274.236 25.6552 274.374 25.6936 274.512 25.6936H276.635C277.084 25.6936 277.446 25.8279 277.722 26.1157C278.033 26.4036 278.188 26.7873 278.188 27.2671Z" fill="white"/>
<path d="M0 0.210938H13.0309L28.8578 28.8977H15.8097L0 0.210938Z" fill="white"/>
<path d="M15.3281 0.210938H28.3763L44.2032 28.8977H31.155L15.3281 0.210938Z" fill="white"/>
<path d="M30.6172 0.210938H59.7339L54.7114 8.96087H35.4326L30.6172 0.210938Z" fill="#B44843"/>
<path d="M48.241 20.2438H41.5443L36.5391 11.1484H53.4533L48.241 20.2438Z" fill="#B44843"/>
<path d="M72.7489 19.0158L62.3242 0.0191884L65.8969 0.0383769L73.7155 14.1035L75.7693 10.4769L70.0392 0.0191884L73.5946 0.0383769L81.2924 13.8924L88.9383 0L92.5628 0.0191884C89.0246 6.40894 85.5382 12.7028 82.069 19.0158H80.5157L77.5471 13.7006C76.5115 15.5618 75.545 17.2888 74.5784 19.0158H72.7489Z" fill="#FEFEFE"/>
<path d="M84.8828 19.0151L95.3938 0.0377431L112.929 0.0185547L111.117 3.16546L110.513 3.14627H97.2406L90.1297 16.0025H103.937L102.263 19.0151H84.8828Z" fill="#FEFEFE"/>
<path d="M125.562 19.0158L136.004 0L139.612 0.0191884L130.74 16.0224H144.203L142.373 19.0158H125.562Z" fill="#FEFEFE"/>
<path d="M105.645 19.0158L110.408 10.3234L115.724 0.709973L116.121 0L119.694 0.0191884L110.857 16.0032H124.181L122.455 19.0158H105.645Z" fill="#FEFEFE"/>
<path d="M95.082 11.0522L96.6872 7.96289L108.199 8.00127L106.456 11.0714L95.082 11.0522Z" fill="#FEFEFE"/>
</svg>
