<svg width="26" height="24" viewBox="0 0 26 24" fill="none" xmlns="http://www.w3.org/2000/svg">
<path d="M12.5938 19C12.5938 19 18.6875 13.6694 18.6875 9.625C18.6875 8.13316 18.0455 6.70242 16.9027 5.64752C15.7599 4.59263 14.2099 4 12.5938 4C10.9776 4 9.42762 4.59263 8.28482 5.64752C7.14202 6.70242 6.5 8.13316 6.5 9.625C6.5 13.6694 12.5938 19 12.5938 19ZM12.5938 12.4375C11.7857 12.4375 11.0107 12.1412 10.4393 11.6137C9.86788 11.0863 9.54688 10.3709 9.54688 9.625C9.54688 8.87908 9.86788 8.16371 10.4393 7.63626C11.0107 7.10882 11.7857 6.8125 12.5938 6.8125C13.4018 6.8125 14.1768 7.10882 14.7482 7.63626C15.3196 8.16371 15.6406 8.87908 15.6406 9.625C15.6406 10.3709 15.3196 11.0863 14.7482 11.6137C14.1768 12.1412 13.4018 12.4375 12.5938 12.4375Z" fill="#F53B49"/>
</svg>
