<svg width="20" height="20" viewBox="0 0 20 20" fill="none" xmlns="http://www.w3.org/2000/svg">
<path d="M10 20C15.5228 20 20 15.5228 20 10C20 4.47715 15.5228 0 10 0C4.47715 0 0 4.47715 0 10C0 15.5228 4.47715 20 10 20Z" fill="#25D366"/>
<path fill-rule="evenodd" clip-rule="evenodd" d="M10.3283 15.5634H10.3259C9.33066 15.563 8.35278 15.3133 7.48426 14.8396L4.33203 15.6665L5.17562 12.5852C4.65525 11.6834 4.38144 10.6605 4.38189 9.61244C4.38319 6.33388 7.05071 3.6665 10.3283 3.6665C11.919 3.66719 13.412 4.28645 14.5346 5.41043C15.6573 6.53435 16.2752 8.02831 16.2746 9.61713C16.2733 12.8949 13.6068 15.562 10.3283 15.5634ZM7.63031 13.7631L7.81078 13.8702C8.56961 14.3205 9.43945 14.5588 10.3263 14.5591H10.3283C13.0524 14.5591 15.2695 12.342 15.2706 9.61679C15.2711 8.29617 14.7575 7.05446 13.8244 6.12025C12.8913 5.18604 11.6504 4.67131 10.3303 4.67085C7.60408 4.67085 5.38694 6.8878 5.38586 9.61278C5.38547 10.5467 5.64677 11.4561 6.14151 12.243L6.25902 12.43L5.75973 14.2538L7.63031 13.7631ZM13.1205 10.8974C13.2242 10.9474 13.2941 10.9813 13.324 11.0311C13.3612 11.0931 13.3612 11.3906 13.2374 11.7377C13.1135 12.0847 12.52 12.4015 12.2345 12.4441C11.9785 12.4824 11.6546 12.4984 11.2987 12.3853C11.0829 12.3168 10.8061 12.2254 10.4517 12.0723C9.05877 11.4708 8.11746 10.1208 7.93955 9.86568C7.92709 9.84781 7.91837 9.83531 7.91351 9.82881L7.91231 9.82721C7.83368 9.7223 7.30683 9.01935 7.30683 8.29183C7.30683 7.60744 7.64301 7.24871 7.79776 7.08359C7.80836 7.07228 7.81811 7.06188 7.82684 7.05234C7.96303 6.90359 8.124 6.8664 8.22305 6.8664C8.32209 6.8664 8.42125 6.86732 8.50781 6.87166C8.51849 6.8722 8.52961 6.87214 8.54109 6.87207C8.62768 6.87156 8.73562 6.87093 8.84211 7.12671C8.88307 7.22515 8.94302 7.37109 9.00624 7.52502C9.13409 7.83627 9.27535 8.18016 9.3002 8.22992C9.33735 8.3043 9.36211 8.39103 9.31258 8.49024C9.30515 8.50511 9.29827 8.51915 9.29171 8.53256C9.25451 8.6085 9.22715 8.66436 9.16401 8.73808C9.13919 8.76706 9.11353 8.79831 9.08787 8.82955C9.03676 8.8918 8.98565 8.95405 8.94114 8.99839C8.86676 9.07248 8.78933 9.15286 8.876 9.30161C8.96267 9.45036 9.26085 9.93689 9.70255 10.3309C10.1774 10.7544 10.59 10.9334 10.7992 11.0241C10.84 11.0418 10.8731 11.0562 10.8974 11.0683C11.0459 11.1427 11.1326 11.1303 11.2193 11.0311C11.3059 10.932 11.5907 10.5973 11.6897 10.4486C11.7888 10.2999 11.8878 10.3246 12.024 10.3742C12.1602 10.4238 12.8907 10.7832 13.0393 10.8576C13.0683 10.8721 13.0954 10.8852 13.1205 10.8974Z" fill="#FDFDFD"/>
</svg>
