<svg width="255" height="41" viewBox="0 0 255 41" fill="none" xmlns="http://www.w3.org/2000/svg">
<path d="M16.0172 14.4014L13.9844 26.331H17.2356L19.2702 14.4014H16.0172Z" fill="#858FA4"/>
<path d="M11.2582 14.4146L8.07389 22.5503L7.73438 21.3218C7.10637 19.8417 5.32354 17.716 3.23047 16.3764L6.14221 26.325L9.58244 26.3191L14.7026 14.4121L11.2582 14.4146Z" fill="#858FA4"/>
<path d="M6.49914 15.2685C6.31016 14.5418 5.76243 14.3252 5.08258 14.2993H0.0418113L0 14.5368C3.92273 15.4884 6.51838 17.7814 7.59543 20.5384L6.49914 15.2685Z" fill="#858FA4"/>
<path d="M25.859 16.6882C26.9227 16.6715 27.6937 16.904 28.2924 17.1448L28.5859 17.2828L29.0258 14.6972C28.3819 14.4555 27.3726 14.1963 26.1132 14.1963C22.9004 14.1963 20.6359 15.8144 20.6184 18.1332C20.5975 19.8467 22.2314 20.8033 23.4657 21.3744C24.7326 21.9598 25.1574 22.3319 25.1515 22.8546C25.1415 23.6532 24.1414 24.0194 23.2073 24.0194C21.9053 24.0194 21.2138 23.8396 20.1459 23.3948L19.7269 23.2041L19.2695 25.8742C20.0305 26.2078 21.4345 26.4947 22.8921 26.5097C26.3097 26.5097 28.5307 24.9108 28.5541 22.4331C28.5684 21.0776 27.7012 20.0432 25.8222 19.1944C24.6849 18.6408 23.9892 18.2729 23.9959 17.7143C23.9959 17.2184 24.5863 16.6882 25.859 16.6882Z" fill="#858FA4"/>
<path d="M37.3672 14.4146H34.8551C34.0749 14.4146 33.4946 14.627 33.1517 15.4046L28.3242 26.3374H31.7385C31.7385 26.3374 32.2954 24.8674 32.4217 24.5454C32.7955 24.5454 36.1128 24.5504 36.5853 24.5504C36.6823 24.9669 36.9817 26.3374 36.9817 26.3374H39.9979L37.3672 14.4146ZM33.3575 22.1036C33.6251 21.4188 34.6528 18.7696 34.6528 18.7696C34.6352 18.8022 34.9179 18.0797 35.0859 17.6307L35.305 18.6592C35.305 18.6592 35.928 21.5074 36.0585 22.1036H33.3575Z" fill="#858FA4"/>
<path d="M110 20.3534C110 13.8373 104.71 8.48242 98.129 8.48242C95.2903 8.48242 92.7097 9.45016 90.6452 11.1276C92.1935 12.6115 93.4194 14.4824 94 16.6115H93.0323C92.3871 14.7405 91.3548 13.0631 89.9355 11.7082C88.5161 13.0631 87.4839 14.7405 86.8387 16.6115H85.871C86.5161 14.4824 87.6774 12.6115 89.2258 11.1276C87.1613 9.45016 84.6452 8.48242 81.8065 8.48242C75.2903 8.48242 70 13.8373 70 20.3534C70 26.8695 75.2903 32.2244 81.871 32.2244C84.7097 32.2244 87.2903 31.1921 89.2903 29.5792C87.7419 28.0953 86.5806 26.2244 85.9355 24.0953H86.9032C87.5484 25.9663 88.5806 27.6437 90 28.9986C91.4194 27.6437 92.5161 25.9663 93.0968 24.0953H94.0645C93.4194 26.2244 92.2581 28.0953 90.7097 29.5792C92.7742 31.2566 95.3548 32.2244 98.1935 32.2244C104.71 32.2244 110 26.8695 110 20.3534Z" fill="#858FA4"/>
<path d="M101.289 23.1273L102.128 18.7402H103.16L103.289 19.1918C103.483 18.9983 103.805 18.7402 104.45 18.7402L104.128 19.9015C103.805 19.9015 103.289 19.837 102.902 21.1273L102.515 23.1273H101.289Z" fill="#1A1A25"/>
<path d="M85.481 17.6436H86.6423L86.3842 18.8048H87.0294L86.8358 19.7081H86.2552L85.9326 21.45C85.8681 21.7726 85.9326 22.0952 86.5777 21.9661L86.4487 22.9339C86.1906 23.1274 85.8681 23.1274 85.5455 23.1274C85.2874 23.1274 84.3842 22.9339 84.5777 21.7726L85.481 17.6436Z" fill="#1A1A25"/>
<path d="M90.6447 21.1918C90.7737 20.4822 91.0963 18.7402 89.0318 18.7402C87.0963 18.7402 86.8382 20.6757 86.8382 20.9338C86.7737 21.1918 86.7737 23.1273 88.8382 23.1273C89.3544 23.1273 90.064 23.0628 90.3866 22.9338L90.5802 22.0306C90.3866 22.0951 89.7415 22.1596 89.2253 22.1596C88.7737 22.1596 87.9995 22.1596 88.1286 21.1918H90.6447Z" fill="#1A1A25"/>
<path d="M84.3235 19.7726L84.5815 18.8693C84.0009 18.6758 83.5493 18.6758 83.4202 18.6758C83.2267 18.6758 81.8073 18.6758 81.6138 19.708C81.4202 20.5467 81.7428 20.8693 82.0009 20.9984C82.4525 21.1919 82.7106 21.3855 82.9686 21.5145C83.2912 21.6435 83.2267 22.1597 82.8396 22.1597C82.646 22.1597 81.8718 22.2242 81.2912 22.0306L81.0977 22.9338C81.6783 23.0629 82.0654 23.0629 82.517 23.0629C82.8396 23.0629 84.2589 23.1274 84.4525 21.8371C84.5815 21.1919 84.2589 20.9338 84.0654 20.7403C83.8073 20.6113 83.4848 20.3532 83.2267 20.2887C82.9686 20.1597 82.7751 19.7726 83.2267 19.6435C83.4202 19.708 84.0009 19.708 84.3235 19.7726Z" fill="#1A1A25"/>
<path d="M76.5796 23.1272L77.6119 17.8369H75.6119L74.1925 21.0627L73.9345 17.8369H72.0635L71.0312 23.1272H72.1925L72.9667 19.3208L73.2893 23.1272H74.3861L76.0635 19.3853L75.3538 23.1272H76.5796Z" fill="#1A1A25"/>
<path d="M77.933 18.8696L77.7394 19.8373C78.062 19.8373 78.8362 19.7083 79.2233 19.7083C79.6104 19.7083 80.1265 19.6438 79.933 20.2889C79.6104 20.2889 77.4814 19.9664 77.1588 21.8373C77.0298 22.7406 77.8039 23.1922 78.3846 23.1922C78.9652 23.1922 79.1588 23.0631 79.3523 22.9341L79.4814 23.1922H80.5781L81.0297 20.8051C81.1588 20.2244 81.3523 18.8051 79.3523 18.8051C79.0943 18.7406 78.7072 18.7406 77.933 18.8696Z" fill="#1A1A25"/>
<path d="M97.226 19.063C96.9035 18.8694 96.7099 18.8694 96.3228 18.8694C95.9357 18.8694 95.0325 19.2565 94.9035 20.2888C94.7099 21.5791 95.5486 22.1597 96.7744 21.7726L97.097 22.8694C96.7099 23.063 96.3228 23.1275 95.6777 23.1275C94.4519 23.1275 93.097 22.0307 93.6777 19.7726C94.1293 18.1597 95.5486 17.5146 96.3873 17.5791C97.3551 17.6436 97.7422 17.9662 98.0002 18.2888L97.226 19.063Z" fill="#1A1A25"/>
<path d="M107.354 19.2565C107.096 19.063 106.967 18.7404 106.45 18.7404C105.805 18.7404 104.773 18.6114 104.192 20.6114C103.805 21.9662 104.58 23.1275 105.418 23.1275C105.805 23.1275 106.192 22.9339 106.45 22.8049L106.58 23.1275H107.87L108.902 17.5791H107.676L107.354 19.2565Z" fill="#1A1A25"/>
<path d="M98.0658 18.8696L97.8722 19.8373C98.1948 19.8373 98.969 19.7083 99.3561 19.7083C99.7432 19.7083 100.195 19.6438 100.066 20.2889C99.7432 20.2889 97.6142 19.9664 97.2916 21.8373C97.1626 22.7406 97.9368 23.1922 98.5174 23.1922C99.098 23.1922 99.2916 23.0631 99.4851 22.9341L99.6142 23.1922H100.711L101.163 20.8051C101.292 20.2244 101.485 18.8051 99.4851 18.8051C99.2916 18.7406 98.84 18.7406 98.0658 18.8696Z" fill="#1A1A25"/>
<path d="M88.1289 20.3533H89.6128C89.6773 19.9017 89.5483 19.5791 89.0966 19.5791C88.5805 19.5791 88.2579 19.8372 88.1289 20.3533Z" fill="#858FA4"/>
<path d="M79.7425 21.1919C79.549 21.1919 79.0974 21.0629 78.7103 21.321C78.3232 21.579 78.1941 22.0306 78.6458 22.1597C79.0329 22.2887 79.549 22.0306 79.678 21.6435L79.7425 21.1919Z" fill="#858FA4"/>
<path d="M106.967 21.0629C107.096 20.6759 107.032 20.1597 106.903 19.9662C106.515 19.4501 105.677 19.8371 105.419 20.8049C105.225 21.45 105.612 21.9017 105.999 21.9017C106.451 21.9017 106.709 21.5791 106.967 21.0629Z" fill="#858FA4"/>
<path d="M99.9339 21.1919C99.7404 21.1919 99.2888 21.0629 98.9017 21.321C98.5146 21.579 98.3856 22.0306 98.8372 22.1597C99.2243 22.2887 99.8049 22.0306 99.8694 21.6435L99.9339 21.1919Z" fill="#858FA4"/>
<path d="M90.6445 23.1278L91.4832 18.8052H92.5155L92.6445 19.2568C92.8381 19.0632 93.1607 18.8052 93.8058 18.8052L93.4832 19.9665C93.2252 19.9665 92.6445 19.902 92.2574 21.1923L91.8703 23.1923H90.6445" fill="#1A1A25"/>
<path d="M81.8703 8.48242C76.6445 8.48242 72.1929 11.9018 70.6445 16.6115H85.9994C86.6445 14.4824 87.8058 12.6115 89.3542 11.1276C87.2252 9.51468 84.6445 8.48242 81.8703 8.48242Z" fill="#858FA4"/>
<path d="M89.9991 11.7729C88.5798 13.1278 87.5475 14.7407 86.9023 16.6762H93.0959C92.4507 14.8052 91.4185 13.1278 89.9991 11.7729Z" fill="#858FA4"/>
<path d="M98.1284 8.48242C95.2897 8.48242 92.709 9.45016 90.6445 11.1276C92.1929 12.6115 93.3542 14.4824 93.9994 16.6115H109.354C107.87 11.9018 103.419 8.48242 98.1284 8.48242Z" fill="#858FA4"/>
<path d="M162.146 20.1059L159.805 22.2217L161.919 24.562L164.261 22.4462L162.146 20.1059Z" fill="#858FA4"/>
<path d="M157.482 22.0092L154.359 24.8203L157.172 27.9447L160.295 25.1336L157.482 22.0092Z" fill="#858FA4"/>
<path d="M166.372 19.3611L164.812 20.7671L166.218 22.327L167.778 20.921L166.372 19.3611Z" fill="#858FA4"/>
<path d="M157.985 10.4535L155.641 12.5635L157.751 14.9075L160.095 12.7975L157.985 10.4535Z" fill="#858FA4"/>
<path d="M164.373 14.6999L162.816 16.1064L164.224 17.6646L165.781 16.2581L164.373 14.6999Z" fill="#858FA4"/>
<path d="M155.267 16.5968L152.141 19.4106L154.953 22.5351L158.079 19.7212L155.267 16.5968Z" fill="#858FA4"/>
<path d="M153.031 11.2725L149.906 14.085L152.719 17.2094L155.843 14.3969L153.031 11.2725Z" fill="#858FA4"/>
<path d="M160.135 15.1673L157.797 17.2778L159.911 19.6205L162.25 17.51L160.135 15.1673Z" fill="#858FA4"/>
<path d="M162.368 10.0662L160.809 11.4722L162.215 13.0321L163.774 11.6261L162.368 10.0662Z" fill="#858FA4"/>
<path d="M164.21 24.8413L161.867 26.9526L163.98 29.2972L166.323 27.1859L164.21 24.8413Z" fill="#858FA4"/>
<path d="M160.102 27.4974L157.048 30.3134L151.892 24.5754L153.326 23.3134L149.716 19.2714L151.158 18.0074L147.494 13.9694L153.212 8.82142L155.028 10.8094L158.094 8.07342L159.906 9.95142L161.114 8.86942C160.844 8.71342 160.574 8.56942 160.3 8.43942C158.558 7.58742 156.602 7.10742 154.542 7.10742C147.308 7.10742 141.406 13.0074 141.406 20.2434C141.406 27.4774 147.308 33.3774 154.542 33.3774C156.892 33.3774 159.106 32.7554 161.016 31.6654C161.646 31.3094 162.22 30.9234 162.744 30.5174L160.102 27.4974Z" fill="#858FA4"/>
<path d="M210.543 14.397C210.35 14.0108 210.046 13.6922 209.668 13.453C209.273 13.2114 208.808 13.0422 208.275 12.9418C207.734 12.8438 207.109 12.7995 206.384 12.7925L203.038 12.7948C202.691 12.7995 202.35 13.0702 202.268 13.4063L200.017 23.2108C199.935 23.5422 200.154 23.8199 200.501 23.8199H202.104C202.451 23.8199 202.796 23.5504 202.873 23.2108L203.422 20.8303C203.496 20.4989 203.839 20.2223 204.19 20.2223H204.649C206.608 20.22 208.125 19.8197 209.215 19.018C210.311 18.2152 210.851 17.1544 210.851 15.8405C210.85 15.2652 210.755 14.7821 210.543 14.397ZM207.088 17.6002C206.603 17.955 205.93 18.1323 205.062 18.1323H204.67C204.321 18.1323 204.107 17.8569 204.183 17.5209L204.665 15.4391C204.733 15.1053 205.084 14.8288 205.428 14.8311L205.953 14.8276C206.566 14.8276 207.034 14.9338 207.347 15.1392C207.656 15.3422 207.811 15.6655 207.809 16.0937C207.818 16.7449 207.569 17.2455 207.088 17.6002Z" fill="#858FA4"/>
<path d="M218.268 15.7982C217.664 15.4575 216.709 15.2871 215.405 15.2871C214.759 15.2871 214.116 15.3373 213.466 15.4376C212.987 15.5112 212.94 15.5252 212.645 15.5893C212.036 15.7224 211.94 16.3303 211.94 16.3303L211.744 17.1367C211.633 17.6513 211.93 17.6315 212.053 17.5883C212.319 17.5089 212.467 17.4272 213.011 17.3059C213.531 17.188 214.078 17.0993 214.512 17.1052C215.153 17.1052 215.643 17.1729 215.969 17.3106C216.292 17.4506 216.453 17.691 216.453 18.0387L216.425 18.2651L216.193 18.4075C215.284 18.4646 214.627 18.5487 213.83 18.6642C213.051 18.7727 212.367 18.9629 211.799 19.2231C211.189 19.4915 210.736 19.8521 210.42 20.3107C210.114 20.7717 209.961 21.3306 209.961 21.9864C209.961 22.6037 210.183 23.1137 210.613 23.5081C211.046 23.8955 211.618 24.0846 212.302 24.0846C212.735 24.0822 213.07 24.0484 213.308 23.9912L214.084 23.724L214.741 23.3599L215.345 22.9608L215.353 22.9725L215.293 23.2292L215.289 23.2397V23.242C215.224 23.5548 215.413 23.8115 215.717 23.8418L215.723 23.8488H215.751H216.98H217.211L217.232 23.8395C217.552 23.8022 217.852 23.5454 217.922 23.2397L219.09 18.1834L219.15 17.7715L219.178 17.3852C219.183 16.6687 218.874 16.1378 218.268 15.7982ZM215.685 21.4835L215.435 21.8126L214.805 22.1381C214.508 22.2583 214.227 22.319 213.967 22.319C213.573 22.319 213.263 22.2618 213.054 22.1451L212.745 21.5442C212.745 21.2186 212.82 20.9607 212.98 20.7623L213.659 20.3002C213.949 20.2022 214.304 20.1193 214.715 20.0622C215.081 20.0167 215.805 19.9338 215.899 19.9315L216.01 20.1263C215.988 20.2372 215.783 21.0961 215.685 21.4835Z" fill="#858FA4"/>
<path d="M247.37 15.8052C246.762 15.4645 245.808 15.293 244.507 15.293C243.862 15.293 243.218 15.3431 242.57 15.447C242.09 15.517 242.042 15.5322 241.745 15.5952C241.137 15.7271 241.043 16.3374 241.043 16.3374L240.847 17.1425C240.737 17.6572 241.026 17.6338 241.162 17.5941C241.429 17.5148 241.573 17.4366 242.112 17.3106C242.629 17.1939 243.181 17.1075 243.616 17.1099C244.254 17.1099 244.744 17.1787 245.07 17.3164C245.394 17.4564 245.553 17.6992 245.553 18.0434L245.528 18.2686L245.3 18.4145C244.381 18.4693 243.723 18.5534 242.934 18.6689C242.157 18.7774 241.471 18.9664 240.902 19.2278C240.294 19.4974 239.835 19.858 239.522 20.3177C239.213 20.7787 239.062 21.3365 239.062 21.9864C239.062 22.6084 239.282 23.1184 239.718 23.5105C240.154 23.8967 240.72 24.0904 241.403 24.0904C241.834 24.0857 242.169 24.0577 242.408 23.9959L243.182 23.7322L243.845 23.3681L244.444 22.9643L244.455 22.9772L244.4 23.2362L244.394 23.2409L244.397 23.2456C244.324 23.5583 244.514 23.8174 244.822 23.8454L244.825 23.8512H244.853C245.055 23.8512 245.752 23.8512 246.085 23.8512H246.311L246.336 23.843C246.652 23.8045 246.951 23.5478 247.017 23.2386L248.189 18.1893L248.251 17.775L248.285 17.3876C248.286 16.6734 247.98 16.1448 247.37 15.8052ZM244.792 21.4905L244.532 21.8231L243.908 22.1463C243.611 22.2653 243.329 22.3272 243.073 22.3272C242.666 22.3272 242.365 22.2688 242.162 22.1522L241.849 21.5535C241.849 21.2268 241.925 20.9712 242.078 20.7693C242.233 20.5791 242.47 20.4228 242.764 20.3084C243.051 20.2104 243.406 20.131 243.819 20.0715C244.183 20.026 244.904 19.9408 244.997 19.9397L245.111 20.1345C245.094 20.2454 244.888 21.1008 244.792 21.4905Z" fill="#858FA4"/>
<path d="M239.641 14.4328C239.441 14.0443 239.14 13.7303 238.759 13.4853C238.369 13.2426 237.907 13.0722 237.367 12.9742C236.836 12.8797 236.202 12.8283 235.482 12.8271L232.132 12.8295C231.783 12.8353 231.448 13.106 231.368 13.4386L229.115 23.2478C229.033 23.5804 229.257 23.8558 229.598 23.8558L231.202 23.8534C231.543 23.8558 231.892 23.5827 231.972 23.2466L232.515 20.8649C232.594 20.5335 232.939 20.2546 233.285 20.257H233.744C235.705 20.257 237.226 19.8532 238.32 19.0539C239.402 18.2452 239.949 17.1868 239.949 15.8717C239.944 15.2987 239.844 14.8144 239.641 14.4328ZM236.186 17.6407C235.703 17.9885 235.028 18.1658 234.165 18.1658H233.766C233.422 18.1693 233.199 17.8893 233.276 17.5555L233.761 15.4772C233.832 15.1447 234.18 14.8658 234.527 14.8693L235.046 14.8658C235.662 14.8693 236.124 14.9708 236.439 15.1762C236.753 15.3815 236.901 15.7036 236.905 16.1307C236.908 16.7819 236.667 17.2836 236.186 17.6407Z" fill="#858FA4"/>
<path d="M253.378 13.5167C253.451 13.1818 253.241 12.9099 252.897 12.9146H251.462C251.168 12.9146 250.903 13.1328 250.773 13.4012L250.694 13.5249L250.622 13.8423L248.616 22.9607L248.55 23.2407L248.553 23.2477C248.486 23.5476 248.671 23.774 248.955 23.8172L248.98 23.851H250.47C250.762 23.851 251.036 23.6293 251.161 23.3563L251.238 23.2396L253.383 13.5179L253.378 13.5167Z" fill="#858FA4"/>
<path d="M229.154 15.4098C228.775 15.4145 227.234 15.4098 227.234 15.4098C226.888 15.4098 226.445 15.6887 226.225 16.0213C226.225 16.0213 223.931 19.9585 223.708 20.3541L223.442 20.3506L222.728 16.0481C222.649 15.7097 222.295 15.4203 221.855 15.4203L220.42 15.4226C220.075 15.4226 219.862 15.698 219.94 16.0341C219.94 16.0341 221.03 22.2363 221.249 23.6961C221.35 24.5013 221.236 24.6448 221.236 24.6448L219.817 27.1164C219.607 27.4525 219.72 27.7267 220.064 27.7267L221.723 27.7244C222.069 27.7244 222.523 27.4525 222.728 27.1152L229.111 16.3188C229.111 16.32 229.725 15.397 229.154 15.4098Z" fill="#858FA4"/>
</svg>
