<svg width="24" height="25" viewBox="0 0 24 25" fill="none" xmlns="http://www.w3.org/2000/svg">
<g id="entypo-social:youtube-with-circle" clip-path="url(#clip0_888_25391)">
<path id="Vector" d="M14.0037 12.1448L11.1963 10.8348C10.9513 10.721 10.75 10.8485 10.75 11.1198V13.5873C10.75 13.8585 10.9513 13.986 11.1963 13.8723L14.0025 12.5623C14.2488 12.4473 14.2487 12.2598 14.0037 12.1448ZM12 0.353516C5.3725 0.353516 0 5.72602 0 12.3535C0 18.981 5.3725 24.3535 12 24.3535C18.6275 24.3535 24 18.981 24 12.3535C24 5.72602 18.6275 0.353516 12 0.353516ZM12 17.2285C5.8575 17.2285 5.75 16.6748 5.75 12.3535C5.75 8.03227 5.8575 7.47852 12 7.47852C18.1425 7.47852 18.25 8.03227 18.25 12.3535C18.25 16.6748 18.1425 17.2285 12 17.2285Z" fill="#909CB5"/>
</g>
<defs>
<clipPath id="clip0_888_25391">
<rect width="24" height="24" fill="white" transform="translate(0 0.353516)"/>
</clipPath>
</defs>
</svg>
