<svg width="69" height="26" viewBox="0 0 69 26" fill="none" xmlns="http://www.w3.org/2000/svg">
<circle cx="13.1484" cy="13" r="13" fill="#F53B49"/>
<path d="M10.4077 12.0653C10.0784 12.0653 9.77075 12.0133 9.48475 11.9093C9.20742 11.7967 8.96475 11.6493 8.75675 11.4673C8.54875 11.2853 8.38408 11.0687 8.26275 10.8173C8.15008 10.566 8.09375 10.2973 8.09375 10.0113C8.09375 9.72534 8.15008 9.45667 8.26275 9.20534C8.38408 8.954 8.54875 8.73734 8.75675 8.55534C8.96475 8.37334 9.20742 8.23034 9.48475 8.12634C9.77075 8.01367 10.0784 7.95734 10.4077 7.95734C10.7284 7.95734 11.0274 8.01367 11.3047 8.12634C11.5908 8.23034 11.8378 8.37334 12.0457 8.55534C12.2538 8.73734 12.4184 8.954 12.5398 9.20534C12.6611 9.45667 12.7218 9.72534 12.7218 10.0113C12.7218 10.2973 12.6611 10.566 12.5398 10.8173C12.4184 11.0687 12.2538 11.2853 12.0457 11.4673C11.8378 11.6493 11.5908 11.7967 11.3047 11.9093C11.0274 12.0133 10.7284 12.0653 10.4077 12.0653ZM10.4077 10.8953C10.5811 10.8953 10.7284 10.8087 10.8498 10.6353C10.9711 10.462 11.0318 10.254 11.0318 10.0113C11.0318 9.76867 10.9711 9.56067 10.8498 9.38734C10.7284 9.214 10.5811 9.12734 10.4077 9.12734C10.2344 9.12734 10.0871 9.214 9.96575 9.38734C9.84442 9.56067 9.78375 9.76867 9.78375 10.0113C9.78375 10.254 9.84442 10.462 9.96575 10.6353C10.0871 10.8087 10.2344 10.8953 10.4077 10.8953ZM15.9848 17.4473C15.6554 17.4473 15.3478 17.3953 15.0618 17.2913C14.7844 17.1787 14.5417 17.0313 14.3338 16.8493C14.1258 16.6673 13.9611 16.4507 13.8398 16.1993C13.7271 15.948 13.6708 15.6793 13.6708 15.3933C13.6708 15.1073 13.7271 14.8387 13.8398 14.5873C13.9611 14.336 14.1258 14.1193 14.3338 13.9373C14.5417 13.7553 14.7844 13.6123 15.0618 13.5083C15.3478 13.3957 15.6554 13.3393 15.9848 13.3393C16.3054 13.3393 16.6044 13.3957 16.8818 13.5083C17.1678 13.6123 17.4148 13.7553 17.6228 13.9373C17.8307 14.1193 17.9954 14.336 18.1167 14.5873C18.2381 14.8387 18.2987 15.1073 18.2987 15.3933C18.2987 15.6793 18.2381 15.948 18.1167 16.1993C17.9954 16.4507 17.8307 16.6673 17.6228 16.8493C17.4148 17.0313 17.1678 17.1787 16.8818 17.2913C16.6044 17.3953 16.3054 17.4473 15.9848 17.4473ZM15.9848 16.2773C16.1581 16.2773 16.3054 16.1907 16.4268 16.0173C16.5481 15.844 16.6088 15.636 16.6088 15.3933C16.6088 15.1507 16.5481 14.9427 16.4268 14.7693C16.3054 14.596 16.1581 14.5093 15.9848 14.5093C15.8114 14.5093 15.6641 14.596 15.5427 14.7693C15.4214 14.9427 15.3608 15.1507 15.3608 15.3933C15.3608 15.636 15.4214 15.844 15.5427 16.0173C15.6641 16.1907 15.8114 16.2773 15.9848 16.2773ZM9.18575 16.4723L12.8648 12.3253L16.1278 7.94434L17.2068 8.91934L13.6838 12.9363L10.2648 17.4473L9.18575 16.4723Z" fill="white"/>
<circle cx="34.332" cy="13" r="13" fill="#4B7EE8"/>
<path d="M29.7322 11.21C29.0832 11.21 28.5547 11.7384 28.5547 12.3875V16.1556C28.5547 16.8047 29.0832 17.3331 29.7322 17.3331H31.1453C31.4105 17.3331 31.6544 17.2437 31.8518 17.0948V11.21H29.7322Z" fill="white"/>
<path d="M39.8604 12.9764C39.8604 12.6934 39.7484 12.4296 39.5538 12.2351C39.7738 11.9944 39.8859 11.6717 39.8553 11.3359C39.8002 10.7372 39.2608 10.2681 38.6269 10.2681H35.7174C35.8615 9.83052 36.0923 9.0284 36.0923 8.38405C36.0923 7.36242 35.2242 6.5 34.6793 6.5C34.1899 6.5 33.8404 6.77554 33.8253 6.78685C33.7698 6.8316 33.7373 6.89943 33.7373 6.97101V8.56821L32.3807 11.5069L32.3242 11.5356V16.5839C32.7076 16.7648 33.1928 16.8623 33.5017 16.8623H37.8252C38.3381 16.8623 38.787 16.5166 38.8925 16.0395C38.9467 15.7941 38.9151 15.5468 38.8073 15.332C39.1553 15.1568 39.3894 14.7983 39.3894 14.3895C39.3894 14.2228 39.3513 14.0631 39.2788 13.9185C39.6268 13.7433 39.8604 13.3848 39.8604 12.9764Z" fill="white"/>
<circle cx="55.5195" cy="13" r="13" fill="#2FC509"/>
<path d="M50.7841 9.84881V15.667H49.4659L47.3636 12.6102H47.3295V15.667H45.75V9.84881H47.0909L49.1591 12.8943H49.2045V9.84881H50.7841ZM51.5312 15.667V9.84881H55.7244V11.1215H53.1108V12.1215H55.5085V13.3943H53.1108V14.3943H55.7131V15.667H51.5312ZM57.9851 15.667L56.2692 9.84881H58.0305L58.826 13.4284H58.8714L59.8146 9.84881H61.201L62.1442 13.4397H62.1896L62.9851 9.84881H64.7464L63.0305 15.667H61.5192L60.5305 12.417H60.4851L59.4964 15.667H57.9851Z" fill="white"/>
</svg>
