<svg width="15" height="15" viewBox="0 0 15 15" fill="none" xmlns="http://www.w3.org/2000/svg">
<path d="M14.6896 7.37711L7.87425 0.164272C7.82518 0.112198 7.76689 0.070885 7.70273 0.0426971C7.63856 0.0145092 7.56978 0 7.50031 0C7.43084 0 7.36206 0.0145092 7.29789 0.0426971C7.23373 0.070885 7.17544 0.112198 7.12637 0.164272L0.311065 7.37711C0.112513 7.58739 0 7.87303 0 8.17094C0 8.78953 0.474871 9.29247 1.05895 9.29247H1.77704V14.4392C1.77704 14.7494 2.01365 15 2.30652 15H6.44136V11.0746H8.29452V15H12.6941C12.987 15 13.2236 14.7494 13.2236 14.4392V9.29247H13.9417C14.223 9.29247 14.4927 9.17506 14.6912 8.96302C15.1032 8.52492 15.1032 7.8152 14.6896 7.37711Z" fill="#B9C0CF"/>
</svg>
