<svg width="50" height="50" viewBox="0 0 50 50" fill="none" xmlns="http://www.w3.org/2000/svg">
<g clip-path="url(#clip0_1_11904)">
<circle cx="25" cy="25" r="25" fill="white"/>
<path d="M20.7113 32.6268H23.4049L30.2688 18.3323H27.5552L20.7113 32.6268ZM34 29.3344C34 24.4673 26.8369 24.4673 26.8369 29.3344C26.8369 34.2219 34 34.2219 34 29.3344ZM29.0516 29.3344C29.0516 27.1462 31.7653 27.1462 31.7653 29.3344C31.7653 31.5634 29.0516 31.5634 29.0516 29.3344ZM24.1631 21.6656C24.1631 16.7781 17 16.7781 17 21.6656C17 26.5532 24.1631 26.5532 24.1631 21.6656ZM19.2347 21.6656C19.2347 19.4366 21.9484 19.4366 21.9484 21.6656C21.9484 23.8538 19.2347 23.8538 19.2347 21.6656Z" fill="#F53B49"/>
</g>
<defs>
<clipPath id="clip0_1_11904">
<rect width="50" height="50" fill="white"/>
</clipPath>
</defs>
</svg>
