<svg width="50" height="50" viewBox="0 0 50 50" fill="none" xmlns="http://www.w3.org/2000/svg">
<g clip-path="url(#clip0_1_11897)">
<circle cx="25" cy="25" r="25" fill="white"/>
<path d="M33.9801 11.875C31.1012 11.875 28.6443 13.7535 27.7239 16.2689H16.1089C15.8516 16.2689 15.6428 16.5008 15.6409 16.7579L15.5303 33.1744H12.2196C11.9611 33.1744 11.7393 33.3615 11.7393 33.6204V35.7037C11.7452 37.6649 13.2899 39.2761 15.2491 39.3647V39.375H29.6977V39.3613C29.8147 39.3656 29.8629 39.375 29.9369 39.375H29.947C31.9747 39.3718 33.617 37.727 33.617 35.6993V25.1663C33.734 25.1727 33.8578 25.1761 33.9789 25.1761C37.6425 25.1761 40.6238 22.1891 40.6238 18.5253C40.6238 14.8618 37.6439 11.875 33.9801 11.875ZM15.4271 38.4391H15.4241C13.9103 38.437 12.6821 37.2129 12.6752 35.6989V34.1103H26.2464V35.6922C26.2471 36.6688 26.6371 37.605 27.33 38.2935C27.3791 38.3426 27.4401 38.3806 27.4915 38.4391H15.4271ZM32.681 35.6989C32.6813 37.2102 31.4576 38.4361 29.9465 38.4391H29.9376C28.4204 38.4363 27.1899 37.2097 27.1824 35.6927V33.6204C27.1862 33.5007 27.1405 33.3848 27.0558 33.3003C26.971 33.2157 26.8551 33.1703 26.7356 33.1744H16.4663L16.5737 17.2048H27.4641C27.3811 17.6333 27.3382 18.0683 27.3359 18.5045C27.335 19.427 27.5274 20.3392 27.9008 21.1826H23.4806C23.2219 21.1826 23.0126 21.3921 23.0126 21.6505C23.0126 21.909 23.2219 22.1185 23.4806 22.1185H28.4085C29.3739 23.6367 30.9172 24.6951 32.681 25.0493V35.6989ZM33.9801 24.2404C30.8276 24.2404 28.2718 21.6848 28.2721 18.5322C28.2721 15.3795 30.8276 12.824 33.9803 12.824C37.1327 12.824 39.6883 15.3798 39.6883 18.5322C39.6848 21.6832 37.1313 24.237 33.9801 24.2404Z" fill="#F53B49" stroke="#F53B49" stroke-width="0.1875"/>
<path d="M20.4759 24.2969C19.6498 24.2969 18.978 24.9474 18.978 25.7472C18.978 26.5469 19.6498 27.1975 20.4759 27.1975C21.3019 27.1975 21.9739 26.5469 21.9739 25.7472C21.9739 24.9474 21.3019 24.2969 20.4759 24.2969ZM20.4759 26.2615C20.1658 26.2615 19.914 26.0308 19.914 25.7472C19.914 25.4634 20.166 25.2328 20.4759 25.2328C20.7857 25.2328 21.038 25.4636 21.038 25.7472C21.038 26.0308 20.7857 26.2615 20.4759 26.2615Z" fill="#F53B49" stroke="#F53B49" stroke-width="0.1875"/>
<path d="M23.0137 25.7453C23.0137 26.0038 23.223 26.2133 23.4816 26.2133H29.7207C29.9791 26.2133 30.1886 26.0038 30.1886 25.7453C30.1886 25.4869 29.9791 25.2773 29.7207 25.2773H23.4816C23.223 25.2773 23.0137 25.4869 23.0137 25.7453Z" fill="#F53B49" stroke="#F53B49" stroke-width="0.1875"/>
<path d="M20.4759 20.2295C19.6498 20.2295 18.978 20.8803 18.978 21.68C18.978 22.4798 19.6498 23.1303 20.4759 23.1303C21.3019 23.1303 21.9739 22.4798 21.9739 21.68C21.9739 20.8803 21.3019 20.2295 20.4759 20.2295ZM20.4759 22.1944C20.1658 22.1944 19.914 21.9636 19.914 21.68C19.914 21.3965 20.166 21.1654 20.4759 21.1654C20.7857 21.1654 21.038 21.3962 21.038 21.68C21.038 21.9636 20.7857 22.1946 20.4759 22.1946V22.1944Z" fill="#F53B49" stroke="#F53B49" stroke-width="0.1875"/>
<path d="M20.4759 28.3643C19.6498 28.3643 18.978 29.0148 18.978 29.8146C18.978 30.6143 19.6498 31.2649 20.4759 31.2649C21.3019 31.2649 21.9739 30.6143 21.9739 29.8146C21.9739 29.0148 21.3019 28.3643 20.4759 28.3643ZM20.4759 30.3289C20.1658 30.3289 19.914 30.0984 19.914 29.8146C19.914 29.531 20.166 29.3002 20.4759 29.3002C20.7857 29.3002 21.038 29.531 21.038 29.8146C21.038 30.0981 20.7857 30.3289 20.4759 30.3289Z" fill="#F53B49" stroke="#F53B49" stroke-width="0.1875"/>
<path d="M29.7207 29.3721H23.4816C23.223 29.3721 23.0137 29.5816 23.0137 29.84C23.0137 30.0985 23.223 30.308 23.4816 30.308H29.7207C29.9791 30.308 30.1886 30.0985 30.1886 29.84C30.1886 29.5816 29.9791 29.3721 29.7207 29.3721Z" fill="#F53B49" stroke="#F53B49" stroke-width="0.1875"/>
<path d="M32.5397 15.625C32.4516 15.625 32.4041 15.6788 32.4041 15.7787L32.3837 19.667H32.0107C31.9225 19.667 31.875 19.7208 31.875 19.8207V20.3125C31.875 20.4124 31.9225 20.4662 32.0107 20.4662H32.3837L32.3769 21.0963C32.3769 21.1962 32.4244 21.25 32.5126 21.25H33.1027C33.1909 21.25 33.2384 21.1962 33.2384 21.0963L33.2316 20.4662H34.2897C34.3779 20.4662 34.4254 20.4124 34.4254 20.3125V19.8207C34.4254 19.7208 34.3779 19.667 34.2897 19.667H33.2316L33.2248 19.229H34.5068C35.5514 19.229 36.25 18.4221 36.25 17.377C36.25 16.3397 35.5514 15.625 34.5068 15.625H32.5397ZM33.2248 18.4298L33.2112 16.4242H34.4457C35.0359 16.4242 35.4496 16.8238 35.4496 17.4693C35.4496 18.0686 35.1037 18.4298 34.4457 18.4298H33.2248Z" fill="#F53B49"/>
</g>
<defs>
<clipPath id="clip0_1_11897">
<rect width="50" height="50" fill="white"/>
</clipPath>
</defs>
</svg>
