<svg width="50" height="50" viewBox="0 0 50 50" fill="none" xmlns="http://www.w3.org/2000/svg">
<g clip-path="url(#clip0_1_11900)">
<circle cx="25" cy="25" r="25" fill="white"/>
<path d="M35.9876 18.752C35.9835 18.7053 35.9739 18.6613 35.9601 18.6159C35.9464 18.5705 35.9299 18.5293 35.9079 18.488C35.8982 18.4701 35.8969 18.4481 35.8845 18.4302L33.1345 14.3052C33.0066 14.1155 32.7921 14 32.5625 14H17.4375C17.2079 14 16.9934 14.1155 16.8655 14.3066L14.1155 18.4316C14.1031 18.4495 14.1018 18.4701 14.0921 18.4894C14.0701 18.5306 14.0536 18.5719 14.0399 18.6172C14.0261 18.6626 14.0165 18.7066 14.0124 18.7534C14.0096 18.7726 14 18.7905 14 18.8125V34.625C14 35.384 14.6174 36 15.375 36H34.625C35.3826 36 36 35.384 36 34.625V18.8125C36 18.7905 35.9904 18.7726 35.9876 18.752ZM32.194 15.375L34.0282 18.125H27.6455L27.1863 15.375H32.194ZM24.2066 15.375H25.792L26.2512 18.125H23.7488L24.2066 15.375ZM23.625 19.5H26.375V21.9846L25.2172 21.5969C25.0756 21.5515 24.923 21.5515 24.7828 21.5969L23.625 21.9846V19.5ZM17.806 15.375H22.8137L22.3545 18.125H15.9718L17.806 15.375ZM34.625 35.3125V34.625H15.375V19.5H22.25V22.9375C22.25 23.1589 22.3559 23.3665 22.536 23.4944C22.7148 23.625 22.9444 23.6552 23.1547 23.5906L25 22.9746L26.8453 23.5892C26.9167 23.6126 26.9896 23.625 27.0625 23.625C27.2055 23.625 27.3457 23.581 27.464 23.4944C27.6441 23.3665 27.75 23.1589 27.75 22.9375V19.5H34.625V34.625C34.625 34.625 34.625 34.625 34.6264 34.625L34.625 35.3125Z" fill="#F53B49"/>
</g>
<defs>
<clipPath id="clip0_1_11900">
<rect width="50" height="50" fill="white"/>
</clipPath>
</defs>
</svg>
