<svg width="20" height="19" viewBox="0 0 20 19" fill="none" xmlns="http://www.w3.org/2000/svg">
<path d="M11.6177 16.0982C9.84651 16.0978 8.12632 15.5049 6.73108 14.4138L2.34437 18.8003L0.933355 17.3894L5.32007 13.0029C4.22838 11.6076 3.63506 9.88707 3.63464 8.11548C3.63464 3.71404 7.21605 0.132812 11.6177 0.132812C16.0194 0.132812 19.6008 3.71404 19.6008 8.11548C19.6008 12.5169 16.0194 16.0982 11.6177 16.0982ZM11.6177 2.12848C8.31573 2.12848 5.63041 4.81365 5.63041 8.11548C5.63041 11.4173 8.31573 14.1025 11.6177 14.1025C14.9197 14.1025 17.6051 11.4173 17.6051 8.11548C17.6051 4.81365 14.9197 2.12848 11.6177 2.12848Z" fill="#858FA4" fill-opacity="0.7"/>
</svg>
