<svg width="21" height="18" viewBox="0 0 21 18" fill="none" xmlns="http://www.w3.org/2000/svg">
<path d="M18.757 2.17611C16.5388 -0.0414745 12.9303 -0.0414745 10.7127 2.17611L10.1976 2.69088L9.68282 2.17611C7.46524 -0.0417746 3.85642 -0.0417746 1.63884 2.17611C-0.533711 4.34866 -0.547819 7.79239 1.60613 10.1868C3.57067 12.3698 9.36465 17.0862 9.61049 17.2858C9.77737 17.4215 9.97818 17.4875 10.1778 17.4875C10.1844 17.4875 10.191 17.4875 10.1973 17.4872C10.4038 17.4969 10.6118 17.426 10.7841 17.2858C11.0299 17.0862 16.8245 12.3698 18.7897 10.1865C20.9433 7.79239 20.9292 4.34866 18.757 2.17611ZM17.451 8.98193C15.9192 10.6835 11.7089 14.193 10.1973 15.4384C8.68569 14.1933 4.47625 10.6841 2.94484 8.98223C1.44224 7.31214 1.42813 4.93367 2.91212 3.44968C3.67002 2.69208 4.66535 2.31298 5.66068 2.31298C6.65601 2.31298 7.65134 2.69178 8.40925 3.44968L9.54145 4.58188C9.67622 4.71666 9.84611 4.7971 10.0244 4.82531C10.3138 4.88745 10.6277 4.8067 10.8528 4.58218L11.9856 3.44968C13.5018 1.93418 15.9679 1.93448 17.4831 3.44968C18.9671 4.93367 18.953 7.31214 17.451 8.98193Z" fill="#858FA4"/>
</svg>
