<svg width="170" height="18" viewBox="0 0 170 18" fill="none" xmlns="http://www.w3.org/2000/svg">
<g id="2654418098080">
<path id="Vector" d="M101.582 7.34718H95.5989L96.6991 5.47925H102.683L101.582 7.34718ZM104.621 2.99587H97.3908L92.1827 11.8605H90.3594L96.6677 1.12793H105.711L104.621 2.99587ZM103.133 11.8605H101.31L107.618 1.12793H109.452L103.133 11.8605ZM120.266 2.99587H116.148L110.93 11.8605H109.127L114.335 2.99587H110.186L111.286 1.12793H121.367L120.266 2.99587ZM127.308 10.9319C126.91 11.6229 126.47 11.9684 126.009 11.9684C125.673 11.9684 125.422 11.7525 125.254 11.3206L122.603 4.41031L118.223 11.8605H116.41L122.173 2.0565C122.32 1.79736 122.519 1.58142 122.76 1.39786C123.001 1.21431 123.242 1.12793 123.483 1.12793C123.819 1.12793 124.06 1.31148 124.206 1.67859L126.868 8.57808L131.248 1.12793H133.072L127.308 10.9319ZM140.459 7.34718H134.476L135.576 5.47925H141.56L140.459 7.34718ZM138.29 11.8605H129.236L135.545 1.12793H144.598L143.498 2.99587H136.278L132.16 9.98173H139.39L138.29 11.8605ZM153.474 8.54569C152.877 9.56063 152.049 10.3704 150.98 10.9967C149.964 11.5689 148.947 11.8605 147.941 11.8605H139.946L141.046 9.98173H149.042C149.534 9.98173 150.037 9.87376 150.54 9.64701C151.137 9.35548 151.567 8.97758 151.85 8.4917C152.133 8.01662 152.133 7.63871 151.86 7.37958C151.63 7.16363 151.263 7.04486 150.771 7.04486H145.824C144.913 7.04486 144.305 6.79652 143.991 6.27825C143.666 5.72759 143.771 4.99337 144.305 4.08639C144.839 3.17942 145.583 2.456 146.568 1.89454C147.491 1.38707 148.402 1.12793 149.303 1.12793H157.205L156.115 2.99587H148.214C147.857 2.99587 147.512 3.09304 147.145 3.29819C146.778 3.49254 146.506 3.76247 146.306 4.09719C146.097 4.44271 146.065 4.71264 146.202 4.89619C146.338 5.09054 146.579 5.17692 146.925 5.17692H151.86C152.877 5.17692 153.547 5.47925 153.872 6.0731C154.208 6.69934 154.082 7.51994 153.474 8.54569ZM166.269 8.54569C165.672 9.56063 164.844 10.3704 163.775 10.9967C162.758 11.5689 161.742 11.8605 160.736 11.8605H152.741L153.841 9.98173H161.836C162.329 9.98173 162.832 9.87376 163.335 9.64701C163.932 9.35548 164.362 8.97758 164.645 8.4917C164.928 8.01662 164.928 7.63871 164.655 7.37958C164.425 7.16363 164.058 7.04486 163.565 7.04486H158.619C157.708 7.04486 157.1 6.79652 156.785 6.27825C156.461 5.72759 156.565 4.99337 157.1 4.08639C157.634 3.17942 158.378 2.456 159.363 1.89454C160.285 1.38707 161.197 1.12793 162.098 1.12793H169.999L168.91 2.99587H161.008C160.652 2.99587 160.306 3.09304 159.94 3.29819C159.573 3.49254 159.3 3.76247 159.101 4.09719C158.892 4.44271 158.86 4.71264 158.997 4.89619C159.133 5.09054 159.374 5.17692 159.72 5.17692H164.655C165.672 5.17692 166.342 5.47925 166.667 6.0731C167.002 6.69934 166.877 7.51994 166.269 8.54569Z" fill="#AF4642"/>
<path id="Vector_2" d="M41.3819 15.6399C41.3819 16.0502 41.2457 16.3957 40.9942 16.6656C40.7322 16.9463 40.3969 17.0759 39.9987 17.0759H38.4688V14.2578H39.9987C40.4074 14.2578 40.7322 14.3874 40.9942 14.6465C41.2562 14.8949 41.3819 15.2296 41.3819 15.6399ZM40.8999 15.6831C40.8999 15.4131 40.816 15.1864 40.6484 15.0136C40.4807 14.8409 40.2607 14.7545 39.9987 14.7545H38.9403V16.59H39.9987C40.2607 16.59 40.4807 16.5037 40.6484 16.3309C40.816 16.1689 40.8999 15.953 40.8999 15.6831Z" fill="white"/>
<path id="Vector_3" d="M44.8805 17.0759H44.3984V14.2578H44.8805V17.0759ZM51.0107 16.2121C51.0107 16.4713 50.9163 16.6872 50.7277 16.8492C50.5601 17.0003 50.34 17.0759 50.0676 17.0759H47.9822V16.59H50.0676C50.2038 16.59 50.319 16.5576 50.4134 16.4929C50.5181 16.4173 50.5705 16.3201 50.5705 16.1905C50.5705 16.0718 50.5181 15.9746 50.4029 15.899C50.3086 15.845 50.2038 15.8126 50.0676 15.8126H48.7786C48.5481 15.8126 48.349 15.7478 48.1918 15.6183C48.0137 15.4671 47.9298 15.2728 47.9298 15.0352C47.9298 14.7977 48.0137 14.6141 48.1918 14.463C48.349 14.3334 48.5481 14.2578 48.7786 14.2578H50.843V14.7545H48.7786C48.6948 14.7545 48.611 14.7761 48.5481 14.8301C48.4852 14.8841 48.4538 14.9488 48.4538 15.046C48.4538 15.1324 48.4852 15.1972 48.5481 15.2512C48.611 15.3052 48.6948 15.3267 48.7786 15.3267H50.0676C50.34 15.3267 50.5601 15.4023 50.7277 15.5643C50.9163 15.7262 51.0107 15.9422 51.0107 16.2121ZM56.4388 14.7545H55.3699V17.0759H54.8983V14.7545H53.819V14.2578H56.4388V14.7545ZM62.5375 17.0759H61.8249L61.06 16.2877H60.033V15.8018H61.3115C61.4896 15.8018 61.6363 15.7586 61.7621 15.6831C61.8983 15.5859 61.9612 15.4563 61.9612 15.2836C61.9612 14.9272 61.7516 14.7545 61.3115 14.7545H59.7501V17.0759H59.2785V14.2578H61.2381C61.5944 14.2578 61.8773 14.3442 62.0869 14.4954C62.3384 14.6789 62.4641 14.938 62.4641 15.2836C62.4641 15.5211 62.3908 15.7262 62.2441 15.899C62.1183 16.0502 61.9297 16.1689 61.6992 16.2229L62.5375 17.0759ZM66.0899 17.0759H65.6078V14.2578H66.0899V17.0759ZM72.3563 16.2553C72.3563 16.3741 72.3248 16.4929 72.2724 16.6008C72.0943 16.914 71.759 17.0759 71.2665 17.0759H69.3069V14.2578H71.2665C71.738 14.2578 72.0629 14.409 72.2515 14.7113C72.3248 14.8301 72.3563 14.9596 72.3563 15.1C72.3563 15.3267 72.262 15.5211 72.0733 15.6831C72.262 15.8342 72.3563 16.0286 72.3563 16.2553ZM71.8952 15.0892C71.8952 14.9704 71.8323 14.8841 71.6961 14.8193C71.5913 14.7761 71.476 14.7437 71.3398 14.7437H69.7889V16.5792H71.3398C71.476 16.5792 71.5913 16.5576 71.6856 16.5252C71.8323 16.4605 71.8952 16.3741 71.8952 16.2661C71.8952 16.1473 71.8323 16.061 71.6856 15.9962C71.5808 15.953 71.4656 15.9314 71.3398 15.9314H70.0614V15.4455H71.3398C71.476 15.4455 71.5913 15.4131 71.6961 15.3699C71.8323 15.3052 71.8952 15.208 71.8952 15.0892ZM78.4865 15.8126C78.4865 16.2661 78.3502 16.6008 78.0883 16.806C77.8472 16.9895 77.5119 17.0759 77.0508 17.0759H76.8937C76.4326 17.0759 76.0868 16.9895 75.8562 16.806C75.5943 16.6008 75.458 16.2661 75.458 15.8126V14.2578H75.9401V15.8126C75.9401 16.1473 76.0553 16.3741 76.2754 16.4821C76.4221 16.5576 76.6841 16.59 77.0508 16.59C77.3652 16.59 77.5853 16.536 77.732 16.4389C77.9101 16.3201 78.0044 16.115 78.0044 15.8126V14.2578H78.4865V15.8126ZM84.0822 14.7545H83.0029V17.0759H82.5313V14.7545H81.452V14.2578H84.0822V14.7545ZM87.5193 17.0759H87.0373V14.2578H87.5193V17.0759ZM94.1735 15.6399C94.1735 16.0502 94.0477 16.3957 93.7857 16.6656C93.5238 16.9463 93.1989 17.0759 92.8007 17.0759H92.0357C91.6376 17.0759 91.3127 16.9463 91.0507 16.6656C90.7888 16.3957 90.663 16.0502 90.663 15.6399C90.663 15.2296 90.7888 14.8949 91.0402 14.6465C91.3022 14.3874 91.6376 14.2578 92.0357 14.2578H92.8007C93.1989 14.2578 93.5342 14.3874 93.7962 14.6465C94.0477 14.8949 94.1735 15.2296 94.1735 15.6399ZM93.7019 15.6831C93.7019 15.4131 93.6181 15.1864 93.4504 15.0136C93.2827 14.8409 93.0627 14.7545 92.8007 14.7545H92.0357C91.7738 14.7545 91.5537 14.8409 91.3861 15.0136C91.2184 15.1864 91.1346 15.4131 91.1346 15.6831C91.1346 15.953 91.2184 16.1689 91.3861 16.3309C91.5537 16.5037 91.7738 16.59 92.0357 16.59H92.8007C93.0627 16.59 93.2827 16.5037 93.4504 16.3309C93.6181 16.1689 93.7019 15.953 93.7019 15.6831ZM99.853 16.8384C99.853 17.0111 99.8007 17.1083 99.6749 17.1083C99.5911 17.1083 99.4863 17.0543 99.3815 16.9355L97.6315 15.1216V17.0759H97.1495V14.5062C97.1495 14.4414 97.1704 14.3874 97.2019 14.3334C97.2438 14.2902 97.2857 14.2578 97.3591 14.2578C97.4429 14.2578 97.5372 14.3118 97.6315 14.409L99.3815 16.2121V14.2578H99.853V16.8384ZM103.531 16.8384C103.531 16.914 103.51 16.9787 103.468 17.0219C103.416 17.0651 103.363 17.0867 103.29 17.0867C103.217 17.0867 103.164 17.0651 103.112 17.0219C103.07 16.9787 103.049 16.914 103.049 16.8384C103.049 16.7628 103.07 16.7088 103.112 16.6656C103.164 16.6116 103.217 16.59 103.29 16.59C103.363 16.59 103.416 16.6116 103.468 16.6656C103.51 16.7088 103.531 16.7628 103.531 16.8384ZM109.944 17.0759H109.232L108.467 16.2877H107.44V15.8018H108.729C108.896 15.8018 109.043 15.7586 109.169 15.6831C109.305 15.5859 109.368 15.4563 109.368 15.2836C109.368 14.9272 109.158 14.7545 108.729 14.7545H107.167V17.0759H106.685V14.2578H108.645C109.001 14.2578 109.284 14.3442 109.504 14.4954C109.745 14.6789 109.871 14.938 109.871 15.2836C109.871 15.5211 109.798 15.7262 109.651 15.899C109.525 16.0502 109.336 16.1689 109.116 16.2229L109.944 17.0759ZM115.173 15.899H113.612V15.4023H115.173V15.899ZM115.299 17.0759H112.941V14.2578H115.299V14.7545H113.413V16.59H115.299V17.0759ZM120.853 14.7545H119.774V17.0759H119.302V14.7545H118.223V14.2578H120.853V14.7545ZM127.245 17.0759H126.637L126.176 16.2877H124.877L125.17 15.8018H125.893L125.422 14.992L124.185 17.0759H123.577L125.055 14.5277C125.097 14.463 125.149 14.409 125.212 14.3442C125.296 14.2902 125.369 14.2578 125.432 14.2578C125.495 14.2578 125.568 14.2794 125.642 14.3442C125.705 14.3982 125.757 14.463 125.799 14.5277L127.245 17.0759ZM130.588 17.0759H130.116V14.2578H130.588V17.0759ZM136.026 17.0759H133.669V14.2578H134.151V16.59H136.026V17.0759ZM139.422 16.8384C139.422 16.914 139.401 16.9787 139.348 17.0219C139.306 17.0651 139.243 17.0867 139.17 17.0867C139.107 17.0867 139.044 17.0651 139.002 17.0219C138.95 16.9787 138.929 16.914 138.929 16.8384C138.929 16.7628 138.95 16.7088 139.002 16.6656C139.044 16.6116 139.107 16.59 139.17 16.59C139.243 16.59 139.306 16.6116 139.348 16.6656C139.401 16.7088 139.422 16.7628 139.422 16.8384ZM145.478 17.0759H143.938C143.54 17.0759 143.204 16.9463 142.953 16.6656C142.691 16.3957 142.555 16.0502 142.555 15.6399C142.555 15.2296 142.691 14.8949 142.942 14.6465C143.204 14.3874 143.529 14.2578 143.938 14.2578H145.478V14.7545H143.938C143.676 14.7545 143.456 14.8409 143.288 15.0136C143.121 15.1864 143.037 15.4131 143.037 15.6831C143.037 15.953 143.121 16.1689 143.288 16.3309C143.456 16.5037 143.676 16.59 143.938 16.59H145.478V17.0759ZM150.728 17.0759H148.371V14.2578H148.842V16.59H150.728V17.0759ZM156.712 15.8126C156.712 16.2661 156.576 16.6008 156.314 16.806C156.083 16.9895 155.737 17.0759 155.287 17.0759H155.119C154.658 17.0759 154.323 16.9895 154.082 16.806C153.82 16.6008 153.694 16.2661 153.694 15.8126V14.2578H154.165V15.8126C154.165 16.1473 154.281 16.3741 154.511 16.4821C154.658 16.5576 154.909 16.59 155.287 16.59C155.591 16.59 155.821 16.536 155.968 16.4389C156.146 16.3201 156.23 16.115 156.23 15.8126V14.2578H156.712V15.8126ZM162.915 16.2553C162.915 16.3741 162.884 16.4929 162.832 16.6008C162.653 16.914 162.318 17.0759 161.826 17.0759H159.866V14.2578H161.826C162.297 14.2578 162.622 14.409 162.811 14.7113C162.884 14.8301 162.915 14.9596 162.915 15.1C162.915 15.3267 162.821 15.5211 162.632 15.6831C162.821 15.8342 162.915 16.0286 162.915 16.2553ZM162.454 15.0892C162.454 14.9704 162.391 14.8841 162.255 14.8193C162.15 14.7761 162.035 14.7437 161.899 14.7437H160.348V16.5792H161.899C162.035 16.5792 162.15 16.5576 162.245 16.5252C162.391 16.4605 162.454 16.3741 162.454 16.2661C162.454 16.1473 162.391 16.061 162.245 15.9962C162.14 15.953 162.025 15.9314 161.899 15.9314H160.62V15.4455H161.899C162.035 15.4455 162.15 15.4131 162.255 15.3699C162.391 15.3052 162.454 15.208 162.454 15.0892ZM168.899 16.2121C168.899 16.4713 168.805 16.6872 168.616 16.8492C168.448 17.0003 168.228 17.0759 167.956 17.0759H165.87V16.59H167.956C168.092 16.59 168.207 16.5576 168.302 16.4929C168.406 16.4173 168.469 16.3201 168.469 16.1905C168.469 16.0718 168.406 15.9746 168.291 15.899C168.207 15.845 168.092 15.8126 167.956 15.8126H166.667C166.436 15.8126 166.237 15.7478 166.08 15.6183C165.902 15.4671 165.818 15.2728 165.818 15.0352C165.818 14.7977 165.902 14.6141 166.08 14.463C166.237 14.3334 166.436 14.2578 166.667 14.2578H168.731V14.7545H166.667C166.583 14.7545 166.499 14.7761 166.436 14.8301C166.373 14.8841 166.342 14.9488 166.342 15.046C166.342 15.1324 166.373 15.1972 166.436 15.2512C166.499 15.3052 166.583 15.3267 166.667 15.3267H167.956C168.228 15.3267 168.448 15.4023 168.616 15.5643C168.805 15.7262 168.899 15.9422 168.899 16.2121Z" fill="white"/>
<path id="Vector_4" d="M0 0.988281H7.91161L17.5208 17.1303H9.59872L0 0.988281Z" fill="white"/>
<path id="Vector_5" d="M9.30664 0.988281H17.2287L26.8379 17.1303H18.9158L9.30664 0.988281Z" fill="white"/>
<path id="Vector_6" d="M18.5898 0.988281H36.2678L33.2185 5.91186H21.5135L18.5898 0.988281Z" fill="#B44843"/>
<path id="Vector_7" d="M29.2883 12.2605H25.2225L22.1836 7.14258H32.453L29.2883 12.2605Z" fill="#B44843"/>
<g id="Group">
<path id="Vector_8" d="M44.1691 11.5693L37.8398 0.879938L40.009 0.890735L44.756 8.80517L46.0029 6.76448L42.5239 0.879938L44.6826 0.890735L49.3562 8.6864L53.9984 0.869141L56.199 0.879938C54.0508 4.47544 51.934 8.01696 49.8278 11.5693H48.8847L47.0823 8.57842C46.4535 9.62576 45.8667 10.5975 45.2799 11.5693H44.1691Z" fill="#FEFEFE"/>
<path id="Vector_9" d="M51.5352 11.5692L57.9168 0.89068L68.5635 0.879883L67.4632 2.65064L67.0964 2.63984H59.0381L54.7208 9.87404H63.1039L62.0875 11.5692H51.5352Z" fill="#FEFEFE"/>
<path id="Vector_10" d="M76.2344 11.5693L82.5741 0.869141L84.7642 0.879938L79.3781 9.8849H87.5516L86.4409 11.5693H76.2344Z" fill="#FEFEFE"/>
<path id="Vector_11" d="M64.1426 11.5693L67.0348 6.6781L70.2623 1.26864L70.5033 0.869141L72.6724 0.879938L67.3072 9.8741H75.397L74.3491 11.5693H64.1426Z" fill="#FEFEFE"/>
<path id="Vector_12" d="M57.7285 7.08798L58.7031 5.34961L65.6925 5.3712L64.6341 7.09878L57.7285 7.08798Z" fill="#FEFEFE"/>
</g>
</g>
</svg>
