<svg width="24" height="24" viewBox="0 0 24 24" fill="none" xmlns="http://www.w3.org/2000/svg">
<path d="M11.625 19C11.625 19 17.25 13.6694 17.25 9.625C17.25 8.13316 16.6574 6.70242 15.6025 5.64752C14.5476 4.59263 13.1168 4 11.625 4C10.1332 4 8.70242 4.59263 7.64752 5.64752C6.59263 6.70242 6 8.13316 6 9.625C6 13.6694 11.625 19 11.625 19ZM11.625 12.4375C10.8791 12.4375 10.1637 12.1412 9.63626 11.6137C9.10882 11.0863 8.8125 10.3709 8.8125 9.625C8.8125 8.87908 9.10882 8.16371 9.63626 7.63626C10.1637 7.10882 10.8791 6.8125 11.625 6.8125C12.3709 6.8125 13.0863 7.10882 13.6137 7.63626C14.1412 8.16371 14.4375 8.87908 14.4375 9.625C14.4375 10.3709 14.1412 11.0863 13.6137 11.6137C13.0863 12.1412 12.3709 12.4375 11.625 12.4375Z" fill="#F53B49"/>
</svg>
