<svg width="12" height="15" viewBox="0 0 12 15" fill="none" xmlns="http://www.w3.org/2000/svg">
<path d="M5.625 15C5.625 15 11.25 9.66938 11.25 5.625C11.25 4.13316 10.6574 2.70242 9.60248 1.64752C8.54758 0.592632 7.11684 0 5.625 0C4.13316 0 2.70242 0.592632 1.64752 1.64752C0.592632 2.70242 2.22302e-08 4.13316 0 5.625C0 9.66938 5.625 15 5.625 15ZM5.625 8.4375C4.87908 8.4375 4.16371 8.14118 3.63626 7.61374C3.10882 7.08629 2.8125 6.37092 2.8125 5.625C2.8125 4.87908 3.10882 4.16371 3.63626 3.63626C4.16371 3.10882 4.87908 2.8125 5.625 2.8125C6.37092 2.8125 7.08629 3.10882 7.61374 3.63626C8.14118 4.16371 8.4375 4.87908 8.4375 5.625C8.4375 6.37092 8.14118 7.08629 7.61374 7.61374C7.08629 8.14118 6.37092 8.4375 5.625 8.4375Z" fill="#909CB5"/>
</svg>
