<svg width="40" height="40" viewBox="0 0 40 40" fill="none" xmlns="http://www.w3.org/2000/svg">
<g id="mastercard 1">
<path id="Vector" d="M40 19.9999C40 13.4837 34.7097 8.12891 28.129 8.12891C25.2903 8.12891 22.7097 9.09665 20.6452 10.7741C22.1935 12.2579 23.4194 14.1289 24 16.2579H23.0323C22.3871 14.387 21.3548 12.7096 19.9355 11.3547C18.5161 12.7096 17.4839 14.387 16.8387 16.2579H15.871C16.5161 14.1289 17.6774 12.2579 19.2258 10.7741C17.1613 9.09665 14.6452 8.12891 11.8065 8.12891C5.29032 8.12891 0 13.4837 0 19.9999C0 26.516 5.29032 31.8708 11.871 31.8708C14.7097 31.8708 17.2903 30.8386 19.2903 29.2257C17.7419 27.7418 16.5806 25.8708 15.9355 23.7418H16.9032C17.5484 25.6128 18.5806 27.2902 20 28.645C21.4194 27.2902 22.5161 25.6128 23.0968 23.7418H24.0645C23.4194 25.8708 22.2581 27.7418 20.7097 29.2257C22.7742 30.9031 25.3548 31.8708 28.1935 31.8708C34.7097 31.8708 40 26.516 40 19.9999Z" fill="#858FA4"/>
<g id="Group">
<path id="Vector_2" d="M31.291 22.7748L32.1297 18.3877H33.162L33.291 18.8393C33.4846 18.6458 33.8071 18.3877 34.4523 18.3877L34.1297 19.549C33.8071 19.549 33.291 19.4845 32.9039 20.7748L32.5168 22.7748H31.291Z" fill="#1A1A25"/>
<path id="Vector_3" d="M15.4849 17.291H16.6462L16.3881 18.4523H17.0333L16.8397 19.3555H16.2591L15.9365 21.0975C15.872 21.42 15.9365 21.7426 16.5816 21.6136L16.4526 22.5813C16.1946 22.7749 15.872 22.7749 15.5494 22.7749C15.2913 22.7749 14.3881 22.5813 14.5816 21.42L15.4849 17.291Z" fill="#1A1A25"/>
<path id="Vector_4" d="M20.6466 20.8393C20.7757 20.1296 21.0983 18.3877 19.0337 18.3877C17.0983 18.3877 16.8402 20.3232 16.8402 20.5812C16.7757 20.8393 16.7757 22.7748 18.8402 22.7748C19.3563 22.7748 20.066 22.7103 20.3886 22.5812L20.5821 21.678C20.3886 21.7425 19.7434 21.807 19.2273 21.807C18.7757 21.807 18.0015 21.807 18.1305 20.8393H20.6466Z" fill="#1A1A25"/>
<path id="Vector_5" d="M14.3235 19.42L14.5815 18.5168C14.0009 18.3232 13.5493 18.3232 13.4202 18.3232C13.2267 18.3232 11.8073 18.3232 11.6138 19.3555C11.4202 20.1942 11.7428 20.5168 12.0009 20.6458C12.4525 20.8394 12.7106 21.0329 12.9686 21.162C13.2912 21.291 13.2267 21.8071 12.8396 21.8071C12.646 21.8071 11.8718 21.8716 11.2912 21.6781L11.0977 22.5813C11.6783 22.7103 12.0654 22.7103 12.517 22.7103C12.8396 22.7103 14.2589 22.7749 14.4525 21.4845C14.5815 20.8394 14.2589 20.5813 14.0654 20.3878C13.8073 20.2587 13.4848 20.0007 13.2267 19.9361C12.9686 19.8071 12.7751 19.42 13.2267 19.291C13.4202 19.3555 14.0009 19.3555 14.3235 19.42Z" fill="#1A1A25"/>
<path id="Vector_6" d="M6.58159 22.7747L7.61385 17.4844H5.61385L4.19449 20.7102L3.93643 17.4844H2.06546L1.0332 22.7747H2.19449L2.96869 18.9682L3.29127 22.7747H4.38804L6.06546 19.0328L5.35578 22.7747H6.58159Z" fill="#1A1A25"/>
<path id="Vector_7" d="M7.93688 18.5161L7.74333 19.4838C8.06592 19.4838 8.84011 19.3548 9.2272 19.3548C9.6143 19.3548 10.1304 19.2903 9.93688 19.9354C9.6143 19.9354 7.48527 19.6129 7.16269 21.4838C7.03366 22.3871 7.80785 22.8387 8.3885 22.8387C8.96914 22.8387 9.16269 22.7096 9.35624 22.5806L9.48527 22.8387H10.582L11.0337 20.4516C11.1627 19.8709 11.3562 18.4516 9.35624 18.4516C9.09817 18.387 8.71108 18.387 7.93688 18.5161Z" fill="#1A1A25"/>
<path id="Vector_8" d="M27.226 18.7099C26.9035 18.5164 26.7099 18.5164 26.3228 18.5164C25.9357 18.5164 25.0325 18.9035 24.9035 19.9357C24.7099 21.2261 25.5486 21.8067 26.7744 21.4196L27.097 22.5164C26.7099 22.7099 26.3228 22.7745 25.6777 22.7745C24.4519 22.7745 23.097 21.6777 23.6777 19.4196C24.1293 17.8067 25.5486 17.1615 26.3873 17.2261C27.3551 17.2906 27.7422 17.6132 28.0002 17.9357L27.226 18.7099Z" fill="#1A1A25"/>
<path id="Vector_9" d="M37.3557 18.903C37.0976 18.7095 36.9686 18.3869 36.4524 18.3869C35.8073 18.3869 34.775 18.2578 34.1944 20.2578C33.8073 21.6127 34.5815 22.774 35.4202 22.774C35.8073 22.774 36.1944 22.5804 36.4524 22.4514L36.5815 22.774H37.8718L38.9041 17.2256H37.6782L37.3557 18.903Z" fill="#1A1A25"/>
<path id="Vector_10" d="M28.0658 18.5161L27.8722 19.4838C28.1948 19.4838 28.969 19.3548 29.3561 19.3548C29.7432 19.3548 30.1948 19.2903 30.0658 19.9354C29.7432 19.9354 27.6142 19.6129 27.2916 21.4838C27.1626 22.3871 27.9368 22.8387 28.5174 22.8387C29.098 22.8387 29.2916 22.7096 29.4851 22.5806L29.6142 22.8387H30.7109L31.1626 20.4516C31.2916 19.8709 31.4851 18.4516 29.4851 18.4516C29.2916 18.387 28.84 18.387 28.0658 18.5161Z" fill="#1A1A25"/>
</g>
<g id="Group_2">
<path id="Vector_11" d="M18.1289 19.9998H19.6128C19.6773 19.5482 19.5483 19.2256 19.0966 19.2256C18.5805 19.2256 18.2579 19.4837 18.1289 19.9998Z" fill="#858FA4"/>
<path id="Vector_12" d="M9.74253 20.8389C9.54899 20.8389 9.09737 20.7099 8.71028 20.9679C8.32318 21.226 8.19415 21.6776 8.64576 21.8066C9.03286 21.9357 9.54899 21.6776 9.67802 21.2905L9.74253 20.8389Z" fill="#858FA4"/>
<path id="Vector_13" d="M36.969 20.7099C37.098 20.3228 37.0335 19.8067 36.9045 19.6132C36.5174 19.097 35.6787 19.4841 35.4206 20.4519C35.2271 21.097 35.6142 21.5486 36.0013 21.5486C36.4529 21.5486 36.7109 21.226 36.969 20.7099Z" fill="#858FA4"/>
<path id="Vector_14" d="M29.9359 20.8389C29.7423 20.8389 29.2907 20.7099 28.9036 20.9679C28.5165 21.226 28.3875 21.6776 28.8391 21.8066C29.2262 21.9357 29.8068 21.6776 29.8714 21.2905L29.9359 20.8389Z" fill="#858FA4"/>
</g>
<path id="Vector_15" d="M20.6445 22.7738L21.4832 18.4512H22.5155L22.6445 18.9028C22.8381 18.7092 23.1607 18.4512 23.8058 18.4512L23.4832 19.6125C23.2252 19.6125 22.6445 19.5479 22.2574 20.8383L21.8703 22.8383H20.6445" fill="#1A1A25"/>
<g id="Group_3">
<path id="Vector_16" d="M11.8703 8.12891C6.64453 8.12891 2.19292 11.5483 0.644531 16.2579H15.9994C16.6445 14.1289 17.8058 12.2579 19.3542 10.7741C17.2252 9.16116 14.6445 8.12891 11.8703 8.12891Z" fill="#858FA4"/>
<path id="Vector_17" d="M19.9991 11.4189C18.5798 12.7738 17.5475 14.3867 16.9023 16.3222H23.0959C22.4507 14.4512 21.4185 12.7738 19.9991 11.4189Z" fill="#858FA4"/>
<path id="Vector_18" d="M28.1284 8.12891C25.2897 8.12891 22.709 9.09665 20.6445 10.7741C22.1929 12.2579 23.3542 14.1289 23.9994 16.2579H39.3542C37.8703 11.5483 33.4187 8.12891 28.1284 8.12891Z" fill="#858FA4"/>
</g>
</g>
</svg>
