<svg width="55" height="20" viewBox="0 0 55 20" fill="none" xmlns="http://www.w3.org/2000/svg">
<g id="paypal-logo 1">
<g id="Group">
<g id="Group_2">
<path id="Vector" d="M10.5428 4.043C10.3503 3.65675 10.0457 3.33818 9.66761 3.09896C9.27319 2.8574 8.80759 2.6882 8.27547 2.58784C7.73402 2.48982 7.10855 2.44548 6.38389 2.43848L3.03831 2.44081C2.69057 2.44548 2.34983 2.7162 2.26814 3.05228L0.017144 12.8568C-0.0645408 13.1882 0.153674 13.4659 0.501418 13.4659H2.10361C2.45135 13.4659 2.79559 13.1964 2.87261 12.8568L3.42223 10.4763C3.49575 10.1449 3.83882 9.86829 4.19007 9.86829H4.64867C6.60794 9.86596 8.12494 9.4657 9.21485 8.66402C10.3106 7.86118 10.8509 6.80044 10.8509 5.48648C10.8497 4.91119 10.7552 4.42808 10.5428 4.043ZM7.08754 7.24621C6.60327 7.60095 5.92995 7.77833 5.06176 7.77833H4.66967C4.32076 7.77833 4.10722 7.50293 4.18307 7.16686L4.66501 5.08506C4.73269 4.75132 5.08393 4.47476 5.42818 4.47709L5.95329 4.47359C6.56593 4.47359 7.03386 4.57978 7.3466 4.78516C7.65584 4.98821 7.81104 5.31145 7.8087 5.73971C7.81804 6.39085 7.56948 6.89146 7.08754 7.24621Z" fill="#858FA4"/>
</g>
</g>
<g id="Group_3">
<g id="Group_4">
<path id="Vector_2" d="M18.2702 5.44471C17.6658 5.10396 16.7112 4.93359 15.4066 4.93359C14.7613 4.93359 14.1183 4.98377 13.4683 5.08413C12.9887 5.15764 12.942 5.17165 12.6468 5.23583C12.0377 5.36886 11.942 5.97682 11.942 5.97682L11.746 6.78317C11.6351 7.29778 11.9315 7.27795 12.0552 7.23477C12.3212 7.15542 12.4694 7.07373 13.0132 6.95237C13.5325 6.83451 14.0798 6.74583 14.5139 6.75166C15.1545 6.75166 15.6446 6.81934 15.9714 6.95704C16.2935 7.09707 16.4545 7.33746 16.4545 7.6852L16.4265 7.91159L16.1954 8.05395C15.2864 8.11113 14.6294 8.19515 13.8324 8.31067C13.0529 8.4192 12.3691 8.60941 11.8008 8.86963C11.1905 9.13802 10.7377 9.49861 10.4215 9.95721C10.1158 10.4181 9.96289 10.9771 9.96289 11.6329C9.96289 12.2502 10.1846 12.7602 10.6152 13.1546C11.0481 13.542 11.6199 13.731 12.3037 13.731C12.7367 13.7287 13.0716 13.6949 13.3096 13.6377L14.0856 13.3705L14.7426 13.0064L15.3471 12.6073L15.3552 12.619L15.2946 12.8757L15.2911 12.8862V12.8885C15.2257 13.2013 15.4148 13.458 15.7193 13.4883L15.7252 13.4953H15.7532H16.9819H17.213L17.234 13.486C17.5537 13.4486 17.8536 13.1919 17.9236 12.8862L19.0917 7.8299L19.1524 7.41798L19.1804 7.03173C19.1851 6.31523 18.8759 5.78428 18.2702 5.44471ZM15.6867 11.13L15.4369 11.459L14.8068 11.7846C14.5104 11.9048 14.2292 11.9655 13.9689 11.9655C13.5745 11.9655 13.2653 11.9083 13.0564 11.7916L12.7472 11.1906C12.7472 10.8651 12.8219 10.6072 12.9817 10.4088L13.6609 9.9467C13.9514 9.84868 14.3062 9.76583 14.7169 9.70865C15.0834 9.66314 15.8068 9.58029 15.9014 9.57796L16.0122 9.77283C15.9901 9.88369 15.7847 10.7425 15.6867 11.13Z" fill="#858FA4"/>
</g>
</g>
<g id="Group_5">
<g id="Group_6">
<path id="Vector_3" d="M47.3698 5.45173C46.7619 5.11099 45.8085 4.93945 44.5074 4.93945C43.8621 4.93945 43.2179 4.98963 42.5703 5.09349C42.0895 5.1635 42.0417 5.17867 41.7453 5.24169C41.1373 5.37355 41.0428 5.98385 41.0428 5.98385L40.8467 6.78903C40.737 7.30364 41.0264 7.2803 41.1618 7.24063C41.429 7.16128 41.5726 7.08309 42.1117 6.95707C42.6286 6.84037 43.1806 6.75402 43.6158 6.75636C44.2541 6.75636 44.7443 6.8252 45.0698 6.9629C45.3942 7.10293 45.5529 7.34565 45.5529 7.6899L45.5284 7.91511L45.2997 8.06098C44.3813 8.11582 43.7232 8.19984 42.9344 8.31537C42.1572 8.42389 41.471 8.61293 40.9016 8.87432C40.2936 9.14388 39.835 9.50446 39.5223 9.96423C39.213 10.4252 39.0625 10.983 39.0625 11.6329C39.0625 12.2549 39.2819 12.7649 39.7183 13.1569C40.1536 13.5432 40.7195 13.7369 41.4034 13.7369C41.8339 13.7322 42.1689 13.7042 42.4081 13.6424L43.1817 13.3787L43.8446 13.0146L44.4444 12.6108L44.4549 12.6237L44.4 12.8827L44.3942 12.8874L44.3965 12.892C44.3242 13.2048 44.5144 13.4638 44.8224 13.4918L44.8248 13.4977H44.8528C45.0547 13.4977 45.7525 13.4977 46.0851 13.4977H46.3114L46.3359 13.4895C46.6522 13.451 46.9509 13.1943 47.0174 12.885L48.189 7.83576L48.2509 7.4215L48.2847 7.03408C48.2859 6.31993 47.9801 5.79131 47.3698 5.45173ZM44.7921 11.137L44.5319 11.4696L43.9076 11.7928C43.6112 11.9118 43.3288 11.9737 43.0732 11.9737C42.666 11.9737 42.3649 11.9153 42.1619 11.7986L41.8491 11.2C41.8491 10.8733 41.925 10.6177 42.0778 10.4158C42.233 10.2256 42.4699 10.0693 42.764 9.9549C43.0511 9.85687 43.4058 9.77752 43.8189 9.71801C44.183 9.6725 44.9041 9.58731 44.9975 9.58615L45.1107 9.78102C45.0943 9.89188 44.8878 10.7472 44.7921 11.137Z" fill="#858FA4"/>
</g>
</g>
<g id="Group_7">
<g id="Group_8">
<path id="Vector_4" d="M39.6394 4.07932C39.4387 3.69073 39.1376 3.37683 38.7572 3.13178C38.3674 2.88906 37.9053 2.71869 37.365 2.62066C36.8341 2.52614 36.2005 2.4748 35.4805 2.47363L32.1302 2.47597C31.7813 2.4818 31.4464 2.75253 31.3659 3.0851L29.1126 12.8943C29.0309 13.2268 29.2549 13.5022 29.5957 13.5022L31.2002 13.4999C31.5409 13.5022 31.8898 13.2292 31.9704 12.8931L32.513 10.5114C32.5923 10.18 32.9366 9.90111 33.2831 9.90344H33.7417C35.7033 9.90344 37.2239 9.49969 38.3184 8.70034C39.4002 7.89166 39.9475 6.83326 39.9475 5.51814C39.9416 4.94518 39.8424 4.46091 39.6394 4.07932ZM36.1841 7.2872C35.701 7.63494 35.0265 7.81231 34.163 7.81231H33.7639C33.4197 7.81581 33.1968 7.53575 33.2738 7.20201L33.7592 5.12372C33.8304 4.79115 34.1782 4.51225 34.5248 4.51575L35.044 4.51225C35.6602 4.51575 36.1223 4.61727 36.4373 4.82265C36.7512 5.02803 36.8994 5.3501 36.9029 5.7772C36.9064 6.42834 36.6649 6.93012 36.1841 7.2872Z" fill="#858FA4"/>
</g>
</g>
<g id="Group_9">
<g id="Group_10">
<path id="Vector_5" d="M53.3779 3.16372C53.4514 2.82881 53.2414 2.55691 52.8971 2.56158H51.4618C51.1677 2.56158 50.9028 2.7798 50.7733 3.04819L50.694 3.17189L50.6216 3.48929L48.6157 12.6076L48.5503 12.8877L48.5527 12.8947C48.4861 13.1946 48.6705 13.421 48.9553 13.4642L48.9798 13.498H50.4699C50.7617 13.498 51.0359 13.2763 51.1607 13.0032L51.2378 12.8865L53.3826 3.16488L53.3779 3.16372Z" fill="#858FA4"/>
</g>
</g>
<g id="Group_11">
<g id="Group_12">
<path id="Vector_6" d="M29.1564 5.0558C28.7771 5.06046 27.2356 5.0558 27.2356 5.0558C26.8902 5.0558 26.4468 5.33469 26.2274 5.66727C26.2274 5.66727 23.9332 9.60447 23.7104 10.0001L23.4443 9.99656L22.7301 5.6941C22.6508 5.3557 22.2972 5.0663 21.8573 5.0663L20.422 5.06863C20.0766 5.06863 19.8642 5.34403 19.9424 5.6801C19.9424 5.6801 21.0323 11.8823 21.2505 13.3421C21.352 14.1473 21.2376 14.2908 21.2376 14.2908L19.8187 16.7624C19.6086 17.0985 19.7218 17.3727 20.0661 17.3727L21.7254 17.3704C22.0708 17.3704 22.5248 17.0985 22.7301 16.7612L29.1132 5.96483C29.1132 5.966 29.727 5.04296 29.1564 5.0558Z" fill="#858FA4"/>
</g>
</g>
</g>
</svg>
