<svg width="17" height="16" viewBox="0 0 17 16" fill="none" xmlns="http://www.w3.org/2000/svg">
<path d="M12.6671 7.99951C12.2984 7.99951 12.0004 8.29819 12.0004 8.6662V13.9997C12.0004 14.367 11.7017 14.6664 11.3337 14.6664H2.00006C1.63205 14.6664 1.33337 14.367 1.33337 13.9997V4.66608C1.33337 4.29873 1.63205 3.99939 2.00006 3.99939H7.33356C7.70224 3.99939 8.00025 3.70071 8.00025 3.3327C8.00025 2.96469 7.70224 2.66602 7.33356 2.66602H2.00006C0.897361 2.66602 0 3.56338 0 4.66608V13.9997C0 15.1024 0.897361 15.9998 2.00006 15.9998H11.3337C12.4364 15.9998 13.3337 15.1024 13.3337 13.9997V8.6662C13.3337 8.29752 13.0357 7.99951 12.6671 7.99951Z" fill="white"/>
<path d="M6.25278 7.39202C6.20611 7.43869 6.17478 7.49802 6.16144 7.56202L5.6901 9.91943C5.66809 10.0288 5.70276 10.1414 5.78143 10.2208C5.84477 10.2841 5.9301 10.3181 6.01744 10.3181C6.03877 10.3181 6.06077 10.3161 6.08277 10.3114L8.43951 9.84009C8.50485 9.82676 8.56419 9.79542 8.61019 9.74876L13.885 4.47393L11.5283 2.11719L6.25278 7.39202Z" fill="white"/>
<path d="M15.5138 0.487515C14.8638 -0.162505 13.8064 -0.162505 13.1571 0.487515L12.2344 1.41021L14.5911 3.76695L15.5138 2.84425C15.8285 2.53025 16.0018 2.11157 16.0018 1.66622C16.0018 1.22087 15.8285 0.802192 15.5138 0.487515Z" fill="white"/>
</svg>
