<svg width="25" height="21" viewBox="0 0 25 21" fill="none" xmlns="http://www.w3.org/2000/svg">
<g id="paper-plane (2) 1" clip-path="url(#clip0_281_467)">
<path id="Vector" d="M9.45703 15.5303V19.3953C9.45703 19.6653 9.66175 19.9044 9.9649 19.9894C10.0407 20.0103 10.1184 20.0203 10.1952 20.0203C10.4255 20.0203 10.648 19.9286 10.7897 19.7653L13.46 16.6886L9.45703 15.5303Z" fill="white"/>
<path id="Vector_2" d="M24.1558 0.969423C23.9294 0.833589 23.6322 0.815256 23.3861 0.924423L1.24045 10.7161C0.978636 10.8319 0.824109 11.0686 0.845762 11.3178C0.8684 11.5678 1.06427 11.7811 1.34281 11.8619L7.4993 13.6436L20.6105 4.15192L10.4649 14.5011L20.7828 17.4869C20.8595 17.5086 20.9402 17.5203 21.021 17.5203C21.1548 17.5203 21.2877 17.4894 21.4048 17.4294C21.5918 17.3328 21.7188 17.1703 21.7513 16.9878L24.458 1.57109C24.4983 1.33776 24.3822 1.10609 24.1558 0.969423V0.969423Z" fill="white"/>
</g>
<defs>
<clipPath id="clip0_281_467">
<rect width="23.622" height="20" fill="white" transform="translate(0.84375 0.853516)"/>
</clipPath>
</defs>
</svg>
