<svg width="40" height="40" viewBox="0 0 40 40" fill="none" xmlns="http://www.w3.org/2000/svg">
<g id="symbols 1">
<g id="Group">
<g id="Group_2">
<path id="Vector" d="M16.0153 14.0479L13.9824 25.9774H17.2337L19.2682 14.0479H16.0153Z" fill="#858FA4"/>
</g>
</g>
<g id="Group_3">
<g id="Group_4">
<path id="Vector_2" d="M11.2563 14.0611L8.07193 22.1967L7.73243 20.9683C7.10442 19.4882 5.32159 17.3625 3.22852 16.0229L6.14025 25.9715L9.58048 25.9656L14.7007 14.0586L11.2563 14.0611Z" fill="#858FA4"/>
</g>
</g>
<g id="Group_5">
<g id="Group_6">
<path id="Vector_3" d="M6.49914 14.9145C6.31016 14.1878 5.76243 13.9712 5.08258 13.9453H0.0418113L0 14.1828C3.92273 15.1344 6.51838 17.4274 7.59543 20.1844L6.49914 14.9145Z" fill="#858FA4"/>
</g>
</g>
<g id="Group_7">
<g id="Group_8">
<path id="Vector_4" d="M25.859 16.3347C26.9227 16.318 27.6937 16.5505 28.2924 16.7913L28.5859 16.9293L29.0258 14.3437C28.3819 14.102 27.3726 13.8428 26.1132 13.8428C22.9004 13.8428 20.6359 15.4609 20.6184 17.7797C20.5975 19.4931 22.2314 20.4498 23.4657 21.0209C24.7326 21.6063 25.1574 21.9784 25.1515 22.5011C25.1415 23.2996 24.1414 23.6659 23.2073 23.6659C21.9053 23.6659 21.2138 23.4861 20.1459 23.0413L19.7269 22.8506L19.2695 25.5207C20.0305 25.8543 21.4345 26.1411 22.8921 26.1562C26.3097 26.1562 28.5307 24.5573 28.5541 22.0796C28.5684 20.7241 27.7012 19.6897 25.8222 18.8409C24.6849 18.2873 23.9892 17.9194 23.9959 17.3608C23.9959 16.8649 24.5863 16.3347 25.859 16.3347Z" fill="#858FA4"/>
</g>
</g>
<g id="Group_9">
<g id="Group_10">
<path id="Vector_5" d="M37.3691 14.0615H34.8571C34.0769 14.0615 33.4966 14.2739 33.1537 15.0516L28.3262 25.9844H31.7405C31.7405 25.9844 32.2974 24.5143 32.4237 24.1924C32.7975 24.1924 36.1148 24.1974 36.5872 24.1974C36.6842 24.6138 36.9836 25.9844 36.9836 25.9844H39.9999L37.3691 14.0615ZM33.3594 21.7506C33.627 21.0657 34.6547 18.4166 34.6547 18.4166C34.6372 18.4492 34.9198 17.7267 35.0879 17.2776L35.307 18.3062C35.307 18.3062 35.93 21.1544 36.0604 21.7506H33.3594Z" fill="#858FA4"/>
</g>
</g>
</g>
</svg>
