<svg width="30" height="32" viewBox="0 0 30 32" fill="none" xmlns="http://www.w3.org/2000/svg">
<g id="symbols (1) 1">
<g id="Group">
<g id="Group_2">
<path id="Vector" d="M22.1464 15.7524L19.8047 17.8682L21.9191 20.2084L24.2609 18.0927L22.1464 15.7524Z" fill="#858FA4"/>
</g>
</g>
<g id="Group_3">
<g id="Group_4">
<path id="Vector_2" d="M17.4804 17.6566L14.3574 20.4678L17.1699 23.5922L20.2928 20.781L17.4804 17.6566Z" fill="#858FA4"/>
</g>
</g>
<g id="Group_5">
<g id="Group_6">
<path id="Vector_3" d="M26.3704 15.0081L24.8105 16.4141L26.2165 17.9739L27.7764 16.568L26.3704 15.0081Z" fill="#858FA4"/>
</g>
</g>
<g id="Group_7">
<g id="Group_8">
<path id="Vector_4" d="M17.9847 6.10091L15.6406 8.21094L17.7506 10.555L20.0947 8.44496L17.9847 6.10091Z" fill="#858FA4"/>
</g>
</g>
<g id="Group_9">
<g id="Group_10">
<path id="Vector_5" d="M24.3731 10.3464L22.8164 11.7529L24.2242 13.3111L25.781 11.9046L24.3731 10.3464Z" fill="#858FA4"/>
</g>
</g>
<g id="Group_11">
<g id="Group_12">
<path id="Vector_6" d="M15.2646 12.2428L12.1387 15.0566L14.9511 18.1811L18.077 15.3672L15.2646 12.2428Z" fill="#858FA4"/>
</g>
</g>
<g id="Group_13">
<g id="Group_14">
<path id="Vector_7" d="M13.0307 6.91897L9.90625 9.73145L12.7187 12.8559L15.8431 10.0434L13.0307 6.91897Z" fill="#858FA4"/>
</g>
</g>
<g id="Group_15">
<g id="Group_16">
<path id="Vector_8" d="M20.1371 10.8133L17.7988 12.9238L19.9133 15.2665L22.2516 13.156L20.1371 10.8133Z" fill="#858FA4"/>
</g>
</g>
<g id="Group_17">
<g id="Group_18">
<path id="Vector_9" d="M22.3685 5.71319L20.8086 7.11914L22.2145 8.67902L23.7744 7.27307L22.3685 5.71319Z" fill="#858FA4"/>
</g>
</g>
<g id="Group_19">
<g id="Group_20">
<path id="Vector_10" d="M24.2103 20.4883L21.8672 22.5996L23.9798 24.9442L26.3229 22.8329L24.2103 20.4883Z" fill="#858FA4"/>
</g>
</g>
<g id="Group_21">
<g id="Group_22">
<path id="Vector_11" d="M20.1003 23.1439L17.0463 25.9599L11.8903 20.2219L13.3243 18.9599L9.7143 14.9179L11.1563 13.6539L7.4923 9.61591L13.2103 4.4679L15.0263 6.45591L18.0923 3.71991L19.9043 5.5979L21.1123 4.5159C20.8423 4.3599 20.5723 4.2159 20.2983 4.0859C18.5563 3.2339 16.6003 2.75391 14.5403 2.75391C7.3063 2.75391 1.4043 8.6539 1.4043 15.8899C1.4043 23.1239 7.3063 29.0239 14.5403 29.0239C16.8903 29.0239 19.1043 28.4019 21.0143 27.3119C21.6443 26.9559 22.2183 26.5699 22.7423 26.1639L20.1003 23.1439Z" fill="#858FA4"/>
</g>
</g>
</g>
</svg>
