<svg width="16" height="17" viewBox="0 0 16 17" fill="none" xmlns="http://www.w3.org/2000/svg">
<rect x="0.5" y="1" width="15" height="15" rx="7.5" stroke="#909CB5" stroke-opacity="0.3"/>
<path d="M11.6964 6.07572L9.27243 8.49992L11.6964 10.924C12.0569 11.2847 12.0569 11.869 11.6964 12.2297C11.5162 12.4098 11.28 12.5 11.044 12.5C10.8075 12.5 10.5713 12.41 10.3913 12.2297L7.96681 9.80529L5.54251 12.2296C5.36238 12.4098 5.12617 12.4999 4.8899 12.4999C4.65368 12.4999 4.41763 12.4099 4.23735 12.2296C3.8768 11.8691 3.8768 11.2848 4.23735 10.924L6.66123 8.4999L4.23721 6.07572C3.87666 5.71516 3.87666 5.13076 4.23721 4.77021C4.59769 4.40993 5.18175 4.40993 5.54237 4.77021L7.96679 7.19442L10.391 4.77021C10.7517 4.40993 11.3358 4.40993 11.6962 4.77021C12.0569 5.13076 12.0569 5.71516 11.6964 6.07572Z" fill="#858FA4"/>
</svg>
